<?xml version="1.0" encoding="UTF-8"?>
<svg width="209px" height="41px" viewBox="0 0 209 41" version="1.1" xmlns="http://www.w3.org/2000/svg" xmlns:xlink="http://www.w3.org/1999/xlink">
    <!-- Generator: Sketch 52.5 (67469) - http://www.bohemiancoding.com/sketch -->
    <title>Retail_Logo_white</title>
    <desc>Created with Sketch.</desc>
    <g id="Page-1" stroke="none" stroke-width="1" fill="none" fill-rule="evenodd">
        <g id="Home-Page-Sample-1---Old-Style-Copy" transform="translate(-1066.000000, -828.000000)" fill="#606162">
            <g id="Header">
                <g id="Media-Logos" transform="translate(165.000000, 828.000000)">
                    <g id="Retail_Logo_white" transform="translate(901.000000, 0.000000)">
                        <path d="M64.3523977,20.66336 C63.7064264,21.5107399 62.7630807,22.0848398 61.5223605,22.3856597 C61.8376537,22.5594104 62.1102556,22.8003294 62.3205761,23.0911035 C62.5681941,23.4718518 62.782408,23.873007 62.960856,24.2901461 L65.2914748,29.6328767 L62.960856,29.6328767 L60.6857282,24.4829251 C60.4274819,23.893996 60.1180133,23.4914905 59.7573223,23.2711717 C59.3966313,23.050853 58.8075738,22.9406936 57.9944183,22.9406936 L54.225304,22.9406936 L54.225304,29.6328767 L51.9501762,29.6328767 L51.9501762,11.8929775 L59.8021419,11.8929775 C61.6703363,11.8929775 63.0576094,12.3745718 63.9639612,13.3377603 C64.870313,14.3009489 65.3234888,15.6553445 65.3234888,17.4009472 C65.3234888,18.7228599 64.9997918,19.8103308 64.3523977,20.66336 Z M63.048361,17.4009472 C63.048361,14.9223608 61.8553061,13.6830677 59.4691964,13.6830677 L54.225304,13.6830677 L54.225304,21.1844986 L59.1639963,21.1844986 C61.7521499,21.1844986 63.0469381,19.9233148 63.048361,17.4009472 Z" id="Shape" fill-rule="nonzero"></path>
                        <polygon id="Path" points="70.0402174 11.8929775 82.1094933 11.8929775 82.1094933 13.6830677 72.3153453 13.6830677 72.3153453 19.8795335 81.1021196 19.8795335 81.1021196 21.6420838 72.3153453 21.6420838 72.3153453 27.8660895 82.1094933 27.8660895 82.1094933 29.6286398 70.0402174 29.6286398"></polygon>
                        <polygon id="Path" points="93.9290601 29.6286398 91.6539323 29.6286398 91.6539323 13.6830677 85.7164034 13.6830677 85.7164034 11.8929775 99.866589 11.8929775 99.866589 13.6830677 93.9290601 13.6830677"></polygon>
                        <path d="M102.363681,29.6286398 L100.005316,29.6286398 L106.802954,11.8929775 L109.466519,11.8929775 L116.236412,29.6286398 L113.905793,29.6286398 L112.019101,24.7562051 L104.250372,24.7562051 L102.363681,29.6286398 Z M104.638808,22.9639965 L111.602919,22.9639965 L108.106991,13.8546621 L104.638808,22.9639965 Z" id="Shape" fill-rule="nonzero"></path>
                        <polygon id="Path" points="120.95314 11.8929775 123.228268 11.8929775 123.228268 29.6286398 120.95314 29.6286398"></polygon>
                        <polygon id="Path" points="140.291727 27.8660895 140.291727 29.6286398 128.499906 29.6286398 128.499906 11.8929775 130.775034 11.8929775 130.775034 27.8660895"></polygon>
                        <path d="M145.699958,11.8929775 L153.690651,11.8929775 C156.536339,11.8929775 158.696217,12.6040705 160.170283,14.0262565 C161.64435,15.4484425 162.379249,17.730013 162.374981,20.870968 C162.374981,23.8622192 161.640082,26.069644 160.170283,27.4932423 C158.700485,28.9168406 156.540608,29.6286398 153.690651,29.6286398 L145.699958,29.6286398 L145.699958,11.8929775 Z M153.02476,25.6629016 C153.794251,25.6924379 154.561032,25.5558305 155.272142,25.2625146 C155.87633,24.9651144 156.346753,24.4543544 156.591119,23.8304425 C156.895608,23.1426524 157.047852,22.1540425 157.047852,20.8646127 C157.047852,19.5751829 156.905567,18.5604454 156.620999,17.8204002 C156.405954,17.1678282 155.947876,16.6214499 155.340439,16.2929979 C154.757073,15.9978272 153.984468,15.850948 153.022626,15.8523603 L150.913971,15.8523502 L150.913971,25.6565463 L153.02476,25.6629016 Z" id="Shape" fill-rule="nonzero"></path>
                        <polygon id="Path" points="165.704436 11.8929775 170.920583 11.8929775 170.920583 29.6286398 165.704436 29.6286398"></polygon>
                        <polygon id="Path" points="173.695129 11.8929775 179.13324 11.8929775 183.295059 23.6249529 187.456878 11.8929775 192.922734 11.8929775 186.069605 29.6286398 180.55893 29.6286398"></polygon>
                        <polygon id="Path" points="195.142371 11.8929775 208.682157 11.8929775 208.682157 15.8587157 200.358518 15.8587157 200.358518 18.7503997 207.664112 18.7503997 207.664112 22.7754545 200.358518 22.7754545 200.358518 25.6671385 208.682157 25.6671385 208.682157 29.6328767 195.142371 29.6328767"></polygon>
                        <path d="M22.0448367,24.9172073 L16.9055234,24.9172073 L16.9055234,15.7019504 L22.0277625,15.7019504 C22.1792955,15.7019504 22.3969906,15.7019504 22.4716899,15.7019504 C22.5463893,15.7019504 22.6189543,15.7019504 22.6680424,15.718898 C24.6635814,15.9837042 26.2130588,17.9326781 26.2130588,20.2989866 C26.2130588,22.6652951 24.6422388,24.6439272 22.6232228,24.8917859 C22.5848061,24.8917859 22.5293151,24.9044966 22.4290046,24.9129704 C22.3286941,24.9214442 22.1387444,24.9150888 22.0448367,24.9172073 Z" id="Path"></path>
                        <path d="M10.9295778,25.2709884 L10.9295778,9.74486937 L22.0405681,9.74486937 C24.9901242,9.74486937 25.9398727,10.3804043 25.9398727,10.3804043 L32.6307976,3.96150124 C24.464043,-1.85444591 13.2539502,-0.936760863 6.15750062,6.12866873 C-0.938948935,13.1940983 -1.82920598,24.3238701 4.05510598,32.4122829 L10.9295778,25.2709884 Z" id="Path"></path>
                        <path d="M37.1767848,8.4166013 L30.7483747,14.7888985 C30.7483747,14.7888985 31.0365006,15.4053674 31.4868308,16.5472119 C32.1265264,18.1189469 32.3335126,19.8312922 32.0865596,21.5086215 C31.8283134,23.5486887 31.2328531,25.9743138 29.188226,28.0588684 C27.1435989,30.1434231 25.13312,30.7874319 22.6659082,30.8361562 C20.1986963,30.8848805 14.5813074,30.8361562 14.5813074,30.8361562 L8.46023164,36.84408 C16.6141096,42.8490687 27.9676882,42.0264915 35.1566471,34.9099001 C42.3456059,27.7933087 43.2047397,16.5261125 37.1767848,8.4166013 Z" id="Path"></path>
                    </g>
                </g>
            </g>
        </g>
    </g>
</svg>