<?xml version="1.0" encoding="UTF-8"?>
<svg width="312px" height="26px" viewBox="0 0 312 26" version="1.1" xmlns="http://www.w3.org/2000/svg" xmlns:xlink="http://www.w3.org/1999/xlink">
    <!-- Generator: Sketch 52.5 (67469) - http://www.bohemiancoding.com/sketch -->
    <title>WSJ_Logo</title>
    <desc>Created with Sketch.</desc>
    <g id="Page-1" stroke="none" stroke-width="1" fill="none" fill-rule="evenodd">
        <g id="Home-Page-Sample-1---Old-Style-Copy" transform="translate(-692.000000, -836.000000)" fill="#606162" fill-rule="nonzero">
            <g id="Header">
                <g id="Media-Logos" transform="translate(165.000000, 828.000000)">
                    <g id="WSJ_Logo" transform="translate(527.000000, 8.000000)">
                        <path d="M309.927146,21.8590094 C309.000309,21.8590094 308.227362,22.5935466 308.227362,23.5849581 C308.227362,24.5758948 309.000309,25.3104319 309.927146,25.3104319 C310.853982,25.3104319 311.626929,24.5758948 311.626929,23.5849581 C311.626929,22.5935466 310.853982,21.8590094 309.927146,21.8590094 Z M249.527866,25.1278878 L257.157471,25.1278878 L257.157471,24.4717665 L256.327433,24.2892223 C255.571654,24.1066782 255.231139,23.7057414 255.231139,22.6840601 L255.231139,12.764884 L257.006999,12.764884 C258.102317,12.764884 258.669029,13.0200684 258.744265,15.2450318 L258.933331,19.9128794 C259.084292,24.1066782 260.331058,25.2741118 262.446946,25.2741118 C264.599475,25.2741118 265.166187,23.8514937 265.166187,21.8458664 L265.166187,21.0067293 L264.372301,21.0067293 L264.372301,21.6265304 C264.372301,22.9765081 264.184212,23.9246057 263.654629,23.9246057 C263.16413,23.9246057 263.126023,23.5599891 263.012681,21.8821865 L262.786485,18.6732772 C262.484075,14.3695745 261.917363,12.8743161 258.630922,12.2903635 C261.766403,11.4884899 263.692735,9.26352658 263.692735,6.09046566 C263.692735,1.96930717 260.331058,0 257.120341,0 L244.239856,0 L244.239856,0.656592953 L244.957529,0.802345267 C246.317149,1.09432159 246.355256,1.7872347 246.355256,4.74143129 L246.355256,19.2562864 C246.355256,22.5024593 245.41041,24.070358 243.256904,24.070358 C241.331549,24.070358 240.273361,23.1585806 240.273361,19.6209031 L240.273361,2.37071565 C240.273361,1.34950606 240.612899,1.05800143 241.443914,0.87545727 L242.463996,0.656592953 L242.463996,4.28999865e-14 L234.570088,0 L234.570088,0.656592953 L235.400126,0.87545727 C236.155905,1.09432159 236.420208,1.38629791 236.420208,2.4070358 L236.420208,19.3657186 C236.420208,23.1949008 238.724674,25.3104319 242.2378,25.3104319 C245.750437,25.3104319 247.487703,23.1949008 247.487703,19.2562864 L247.487703,3.42824539 C247.487703,1.45893822 247.903943,0.766025111 249.564995,0.766025111 C250.887486,0.766025111 251.454687,1.20375375 251.454687,2.4070358 L251.454687,22.6840601 C251.454687,23.7057414 251.11466,24.070358 250.358881,24.2529022 L249.527866,24.4717665 L249.527866,25.1278878 Z M300.547478,2.49049041 C300.547478,1.4653009 300.884707,1.13557267 301.632224,0.988710954 L302.64246,0.768892132 L302.64246,0.0729571092 L294.861516,0.0729571092 L294.861516,0.732413577 L295.68451,0.952232399 C296.432994,1.17205122 296.769255,1.4653009 296.769255,2.49049041 L296.769255,23.0032818 C296.769255,23.9919927 296.358484,24.5415398 295.197777,24.5415398 C293.85128,24.5415398 293.664038,24.1019022 293.178273,21.94114 L288.390298,0 L286.89333,0 L282.330335,21.2447312 C281.805864,23.6253122 281.544113,24.175333 280.533877,24.4681089 L279.897641,24.6514492 L279.897641,25.3104319 L285.247343,25.3104319 L285.247343,24.6514492 L284.462088,24.5045875 C283.339604,24.2847687 283.040597,23.6992168 283.601839,20.915003 L286.295317,7.32555701 L289.250063,21.7208474 C289.699057,23.8086525 289.662286,24.2118116 288.053069,24.5045875 L287.267814,24.6514492 L287.267814,25.3104319 L307.094173,25.3104319 L307.094173,16.9592117 L306.383428,16.9592117 C306.009428,20.8050936 305.224173,24.4316304 302.044446,24.4316304 L300.547478,24.4316304 L300.547478,2.49049041 Z M288.963152,18.4075869 L288.963152,17.2571127 L283.459604,17.2571127 L283.297208,18.4075869 L288.963152,18.4075869 Z M267.21841,2.86543053 L267.21841,20.424804 C267.21841,23.0697802 267.21841,24.3188628 265.899394,24.5393171 L265.23965,24.6495442 L265.23965,25.3104319 L270.626143,25.3104319 L270.626143,24.6495442 C268.281016,24.3188628 268.281016,23.5106888 268.281016,20.6452583 L268.281016,3.96770193 L267.40183,3.15952794 L276.379951,25.3104319 L277.918407,25.3104319 L277.918407,4.88610305 C277.918407,1.87386138 277.918407,1.21249854 279.384823,0.808173988 L279.897641,0.661362841 L279.897641,0 L274.363748,0 L274.363748,0.661362841 L274.986999,0.808173988 C276.855801,1.13885541 276.855801,1.87386138 276.855801,4.66564877 L276.855801,17.4491463 L277.222642,17.3389192 L270.406702,4.32116379e-14 L265.166187,0 L265.166187,0.661362841 L265.679005,0.808173988 C266.266235,0.992044261 266.595634,1.6534071 267.21841,2.86543053 Z M254.967487,1.15047418 L256.517652,1.15047418 C258.066816,1.15047418 259.500243,2.04178372 259.500243,6.49921833 C259.500243,11.059087 258.416029,11.5047418 256.246599,11.5047418 L254.967487,11.5047418 L254.967487,1.15047418 Z M230.037333,12.4059942 C230.037333,22.6991771 229.136683,24.1599577 227.185436,24.1599577 C225.234674,24.1599577 224.371389,22.6991771 224.371389,12.4769372 C224.371389,2.57532267 225.30989,1.15047418 227.185436,1.15047418 C229.136683,1.15047418 230.037333,2.57532267 230.037333,12.4059942 Z M233.436899,12.6371856 C233.436899,5.72101464 231.188791,0 226.619179,0 C222.013346,0 219.838633,5.72101464 219.838633,12.6371856 C219.838633,19.5894173 222.086742,25.3104319 226.619179,25.3104319 C231.299362,25.3104319 233.436899,19.5894173 233.436899,12.6371856 Z M218.071126,2.41049483 C218.071126,1.38829009 218.323627,1.05952183 219.044725,0.876715346 L219.838633,0.657536509 L219.838633,0 L212.369083,0 L212.369083,0.657536509 L213.270806,0.876715346 C213.992371,1.05952183 214.390025,1.31507302 214.390025,2.37412248 L214.390025,19.9414952 C214.390025,22.3883624 214.172995,24.3604995 212.369083,24.3604995 C211.213926,24.3604995 210.348142,23.4474118 210.384546,22.7903477 C210.491894,21.6576088 212.369083,21.7312982 212.513303,19.9046505 C212.621584,18.5900498 211.791271,18.0421027 211.033768,17.9329857 C209.915016,17.7865515 208.544229,18.7360116 208.507358,20.635404 C208.470953,23.0822712 210.059236,25.3104319 212.765804,25.3104319 C215.761278,25.3104319 218.071126,23.2650777 218.071126,19.3567034 L218.071126,2.41049483 Z M92.049689,2.49049041 C92.049689,1.4653009 92.3859736,1.13557267 93.1329505,0.988710954 L94.1418043,0.768892132 L94.1418043,0.0729571092 L86.3715046,0.0729571092 L86.3715046,0.732413577 L87.1933725,0.952232399 C87.9403495,1.17205122 88.276634,1.4653009 88.276634,2.49049041 L88.276634,23.0032818 C88.276634,23.9919927 87.8654585,24.5415398 86.707306,24.5415398 C85.3626509,24.5415398 85.1384612,24.1019022 84.6528778,21.94114 L79.8709691,0 L78.3770152,0 L73.8192962,21.2447312 C73.296509,23.6253122 73.0346322,24.175333 72.0262617,24.4681089 L71.3908964,24.6514492 L71.3908964,25.3104319 L76.7332794,25.3104319 L76.7332794,24.6514492 L75.9486154,24.5045875 C74.82815,24.2847687 74.5290693,23.6992168 75.0895436,20.915003 L77.779337,7.25212615 L80.7305241,21.7208474 C81.1412165,23.8086525 81.1412165,24.2118116 79.5351677,24.5045875 L78.7505037,24.6514492 L78.7505037,25.3104319 L98.5874284,25.3104319 L98.5874284,16.9592117 L97.8776553,16.9592117 C97.5041669,20.8050936 96.7195028,24.4316304 93.5441261,24.4316304 L92.049689,24.4316304 L92.049689,2.49049041 Z M196.800007,0.881817121 L197.624644,0.881817121 C199.947871,0.881817121 200.734231,4.51836251 200.996351,8.3758373 L201.707612,8.3758373 L201.707612,0 L188.109346,0 L188.109346,8.3758373 L188.821092,8.3758373 C189.083696,4.51836251 189.870541,0.881817121 192.192799,0.881817121 L193.016951,0.881817121 L193.016951,22.8488508 C193.016951,23.8779542 192.680216,24.2452197 191.930679,24.4290899 L190.956813,24.6495442 L190.956813,25.3104319 L199.04862,25.3104319 L199.04862,24.6495442 L197.886764,24.3925059 C197.175018,24.2086356 196.800007,23.9881814 196.800007,22.8488508 L196.800007,0.881817121 Z M180.333459,12.6000834 L181.520526,12.6371425 C183.244648,12.6737455 183.742067,13.2985054 184.087882,17.3027913 L184.815184,17.3027913 L184.815184,7.09015174 L184.087882,7.09015174 C183.665769,10.2862637 183.206004,11.6450983 181.55917,11.6821574 L180.333459,11.7187604 L180.333459,0.881817121 L182.976616,0.881817121 C185.92645,0.881817121 186.577454,4.44519449 186.998576,8.3758373 L187.726373,8.3758373 L187.726373,0 L174.51108,0 L174.51108,0.661362841 L175.353819,0.881817121 C176.234211,1.1022714 176.464589,1.61682309 176.464589,2.46158109 L176.464589,22.8488508 C176.464589,23.8779542 176.12026,24.2452197 175.353819,24.4290899 L174.51108,24.6495442 L174.51108,25.3104319 L188.109346,25.3104319 L188.109346,16.9350697 L187.381549,16.9350697 C186.921783,20.7554854 186.423869,24.4290899 182.976616,24.4290899 L180.333459,24.4290899 L180.333459,12.6001024 L180.333459,12.6000834 Z M165.815,12.6000834 L166.970034,12.6371425 C168.646446,12.6737455 169.130722,13.2985054 169.466101,17.3027913 L170.173962,17.3027913 L170.173962,7.09015174 L169.466101,7.09015174 C169.056515,10.2862637 168.609343,11.6450983 167.007619,11.6821574 L165.815,11.7187604 L165.815,0.881817121 L168.385757,0.881817121 C171.254789,0.881817121 171.887961,4.51836251 172.297547,8.3758373 L173.005409,8.3758373 L173.005409,0 L159.779625,0 L159.779625,0.661362841 L160.971762,0.881817121 C161.828521,1.1022714 162.052107,1.61682309 162.052107,2.46158109 L162.052107,22.8488508 C162.052107,23.8779542 161.716728,24.2452197 160.971762,24.4290899 L160.152108,24.6495442 L160.152108,25.3104319 L173.377891,25.3104319 L173.377891,16.9350697 L172.670512,16.9350697 C172.22334,20.7554854 171.738582,24.4290899 168.385757,24.4290899 L165.815,24.4290899 L165.815,12.6001024 L165.815,12.6000834 Z M149.580926,1.15047418 L150.852048,1.15047418 C152.546147,1.15047418 154.113681,2.04178372 154.113681,6.49921833 C154.113681,10.9903542 152.928031,11.5047418 150.555635,11.5047418 L149.580926,11.5047418 L149.580926,1.15047418 Z M143.914982,25.1639978 L151.281181,25.1639978 L151.281181,24.5069336 L150.478487,24.3241272 C149.749366,24.1413207 149.42112,23.7398077 149.42112,22.7166582 L149.42112,12.7832277 L150.770419,12.7832277 C151.827786,12.7832277 152.374862,13.2215854 152.447963,15.2669396 L152.630008,19.9414952 C152.776209,24.1413207 153.979306,25.3104319 156.021412,25.3104319 C158.099831,25.3104319 158.646436,23.8857695 158.646436,21.87726 L158.646436,21.036917 L157.881001,21.036917 L157.881001,21.6576088 C157.881001,23.0095265 157.698956,23.9589866 157.188194,23.9589866 C156.714218,23.9589866 156.677432,23.593846 156.568488,21.9136323 L156.349186,18.7001116 C156.057726,14.2806349 155.474335,12.8928172 152.338548,12.3080253 C155.36492,11.5049994 157.224509,9.27683873 157.224509,6.09921797 C157.224509,1.97213716 153.979306,0 150.879834,0 L143.914982,0 L143.914982,0.657536509 L144.717204,0.876715346 C145.446796,1.09589418 145.774571,1.38829009 145.774571,2.41049483 L145.774571,22.7166582 C145.774571,23.7398077 145.446796,24.1049483 144.717204,24.2877548 L143.914982,24.5069336 L143.914982,25.1639978 Z M139.007861,0.881817121 L139.832013,0.881817121 C142.154271,0.881817121 142.941116,4.51836251 143.203721,8.3758373 L143.914982,8.3758373 L143.914982,0 L130.316716,0 L130.316716,8.3758373 L131.028461,8.3758373 C131.290581,4.51836251 132.077426,0.881817121 134.400168,0.881817121 L135.22432,0.881817121 L135.22432,22.8488508 C135.22432,23.8779542 134.886617,24.2452197 134.138048,24.4290899 L133.163698,24.6495442 L133.163698,25.3104319 L141.067999,25.3104319 L141.067999,24.6495442 L140.094133,24.4290899 C139.120268,24.2086356 139.007861,23.4741048 139.007861,22.8488508 L139.007861,0.881817121 Z M130.316716,18.6647469 C130.316716,11.2206404 121.957394,9.25981102 121.957394,3.84933106 C121.957394,2.68739291 122.403327,0.944016036 124.26058,0.944016036 C126.935698,0.944016036 127.939047,4.32133908 128.38498,8.42475604 L129.09088,8.42475604 L129.09088,0.145124853 L128.644947,0.145124853 C128.458982,0.944016036 128.124532,1.30753266 127.642079,1.30753266 C126.787214,1.30753266 126.341281,0 124.298062,0 C121.14001,0 118.984827,2.57843186 118.984827,5.95528524 C118.984827,12.0923288 127.34463,14.670291 127.34463,20.3353265 C127.34463,22.9132887 126.118314,24.3659462 124.446546,24.3659462 C121.957394,24.3659462 120.322626,21.4977343 119.876693,16.8856759 L119.170793,16.8856759 L119.170793,25.1648374 L119.616726,25.1648374 C119.988177,23.9667355 120.471111,23.8577744 120.879562,23.8577744 C121.585943,23.8577744 122.328844,25.3104319 124.483547,25.3104319 C127.790563,25.3104319 130.316716,22.5145476 130.316716,18.6647469 Z M105.514613,2.42452197 C105.514613,1.39636881 105.857756,1.06568739 106.619968,0.918401128 L107.649398,0.697946848 L107.649398,0 L99.7206172,0 L99.7206172,0.661362841 L100.559248,0.881817121 C101.32146,1.1022714 101.664603,1.39636881 101.664603,2.42452197 L101.664603,22.8488508 C101.664603,23.8779542 101.32146,24.2452197 100.559248,24.4290899 L99.7206172,24.6495442 L99.7206172,25.3104319 L112.185694,25.3104319 L112.185694,16.9350697 L111.460952,16.9350697 C111.080339,20.7920694 110.279671,24.4290899 107.03953,24.4290899 L105.514613,24.4290899 L105.514613,2.42452197 Z M80.4564071,18.4075869 L80.4564071,17.2571127 L74.9538985,17.2571127 L74.7904629,18.4075869 L80.4564071,18.4075869 Z M58.0303687,25.3104319 L59.5815044,25.3104319 L63.0996953,7.28941576 L62.5702541,7.28941576 L66.4290099,25.3104319 L67.7912691,25.3104319 L72.4069986,4.06609836 C72.8987624,1.83147341 73.1634831,1.06259567 74.0716559,0.842307222 L74.7904629,0.659444125 L74.7904629,0 L69.4559263,4.30862742e-14 L69.4559263,0.659444125 L70.2505775,0.80582935 C71.3853042,1.02564406 71.6500248,1.68508818 71.1205836,4.39534669 L68.1318339,18.6439824 L68.5859203,18.6439824 L65.5590038,3.62646895 C65.2561164,2.19767334 65.06724,1.02564406 66.3159776,0.80582935 L67.1478169,0.659444125 L67.1478169,8.61725485e-14 L59.846225,8.61725485e-14 L59.846225,0.659444125 L60.3379888,0.769351479 C61.0949626,0.952214576 61.2084842,1.39231773 61.5108823,2.78416172 L62.6837757,8.24163034 L62.4567325,4.94488346 L59.846225,18.2777825 L60.1867898,18.2777825 L57.1221959,3.62646895 C56.7816311,2.1247176 56.6681095,0.989166187 57.8786804,0.769351479 L58.4467777,0.659444125 L58.4467777,0 L50.9934974,0 L50.9934974,0.659444125 L51.7123045,0.842307222 C52.3929448,1.02564406 52.7716763,1.35536612 53.2257627,3.36970263 L58.0303687,25.3104319 Z M38.6846425,12.6000834 L39.8721623,12.6371425 C41.5957256,12.6737455 42.0936219,13.2985054 42.4384337,17.3027913 L43.1662045,17.3027913 L43.1662045,7.09015174 L42.4384337,7.09015174 C42.0173274,10.2862637 41.5575784,11.6450983 39.9103096,11.6821574 L38.6846425,11.7187604 L38.6846425,0.881817121 L41.3277039,0.881817121 C44.2769343,0.881817121 44.9284105,4.51836251 45.3495169,8.3758373 L46.0772877,8.3758373 L46.0772877,0 L32.8624761,0 L32.8624761,0.661362841 L33.7051842,0.881817121 C34.5860395,1.1022714 34.815914,1.61682309 34.815914,2.46158109 L34.815914,22.8488508 C34.815914,23.8779542 34.4711022,24.2452197 33.7051842,24.4290899 L32.8624761,24.6495442 L32.8624761,25.3104319 L46.4607421,25.3104319 L46.4607421,16.9350697 L45.7324759,16.9350697 C45.2732223,20.7554854 44.775326,24.4290899 41.3277039,24.4290899 L38.6846425,24.4290899 L38.6846425,12.6001024 L38.6846425,12.6000834 Z M14.7314548,25.3104319 L22.3896596,25.3104319 L22.3896596,24.6495442 L21.5305878,24.4656739 C20.8580187,24.3188628 20.4096392,23.8779542 20.4096392,22.8488508 L20.4096392,12.8210318 L26.0506197,12.8210318 L26.0506197,22.8488508 C26.0506197,23.8779542 25.6027235,24.3188628 24.9301543,24.4656739 L24.0710825,24.6495442 L24.0710825,25.3104319 L31.7292873,25.3104319 L31.7292873,24.6495442 L30.9074194,24.4290899 C30.1604424,24.2452197 29.8236747,23.8408951 29.8236747,22.8127419 L29.8236747,2.42452197 C29.8236747,1.39636881 30.1604424,1.06568739 30.9074194,0.881817121 L31.7292873,0.661362841 L31.7292873,0 L24.0710825,0 L24.0710825,0.661362841 L24.9301543,0.881817121 C25.5650364,1.06568739 26.0506197,1.32272568 26.0506197,2.38793796 L26.0506197,11.8289875 L20.4096392,11.8289875 L20.4096392,2.38793796 C20.4096392,1.35930969 20.8208148,1.06568739 21.5305878,0.881817121 L22.3896596,0.661362841 L22.3896596,0 L14.7314548,0 L14.7314548,0.661362841 L15.5533227,0.881817121 C16.3007828,1.1022714 16.6365842,1.39636881 16.6365842,2.42452197 L16.6365842,22.8488508 C16.6365842,23.8779542 16.3007828,24.2452197 15.5533227,24.4290899 L14.7314548,24.6495442 L14.7314548,25.3104319 Z M8.69066144,0.881817121 L9.51529799,0.881817121 C11.8375559,0.881817121 12.6244006,4.51836251 12.8865203,8.3758373 L13.598266,8.3758373 L13.598266,0 L0,0 L0,8.3758373 L0.711745646,8.3758373 C0.973865724,4.51836251 1.76071047,0.881817121 4.08296839,0.881817121 L4.90712042,0.881817121 L4.90712042,22.8488508 C4.90712042,23.8779542 4.57038576,24.2452197 3.82084831,24.4290899 L2.84698258,24.6495442 L2.84698258,25.3104319 L10.9387893,25.3104319 L10.9387893,24.6495442 L9.77741806,24.3925059 C9.06567242,24.2086356 8.69066144,23.9881814 8.69066144,22.8488508 L8.69066144,0.881817121 Z" id="path13406"></path>
                    </g>
                </g>
            </g>
        </g>
    </g>
</svg>