<?xml version="1.0" encoding="UTF-8"?>
<svg width="169px" height="31px" viewBox="0 0 169 31" version="1.1" xmlns="http://www.w3.org/2000/svg" xmlns:xlink="http://www.w3.org/1999/xlink">
    <!-- Generator: Sketch 52.5 (67469) - http://www.bohemiancoding.com/sketch -->
    <title>New_Bloomberg_Logo</title>
    <desc>Created with Sketch.</desc>
    <g id="Page-1" stroke="none" stroke-width="1" fill="none" fill-rule="evenodd">
        <g id="Home-Page-Sample-1---Old-Style-Copy" transform="translate(-165.000000, -834.000000)" fill="#606162">
            <g id="Header">
                <g id="Media-Logos" transform="translate(165.000000, 828.000000)">
                    <g id="New_Bloomberg_Logo" transform="translate(0.000000, 6.000000)">
                        <path d="M0,0.258333333 L12.3802326,0.258333333 C14.7383721,0.258333333 16.5069767,0.839583333 17.8170543,1.80833333 C19.2581395,2.97083333 20.044186,4.65 20.044186,6.71666667 C20.044186,9.10625 19.0616279,10.5916667 17.0965116,11.4958333 L17.0965116,11.625 C19.7166667,12.4645833 21.2232558,14.7895833 21.2232558,17.5666667 C21.2232558,20.2145833 20.1751938,22.28125 18.472093,23.5729167 C17.0310078,24.60625 15.1968992,25.0583333 12.7077519,25.0583333 L0,25.0583333 L0,0.258333333 Z M11.1356589,9.94583333 C12.4457364,9.94583333 13.4282946,9.23541667 13.4282946,7.75 C13.4282946,6.32916667 12.4457364,5.61875 11.070155,5.61875 L6.8124031,5.61875 L6.8124031,9.88125 L11.1356589,9.88125 L11.1356589,9.94583333 Z M11.7251938,19.56875 C13.2317829,19.56875 14.3453488,18.6645833 14.3453488,17.05 C14.3453488,15.30625 13.1662791,14.53125 11.7251938,14.53125 L6.87790698,14.53125 L6.87790698,19.6333333 L11.7251938,19.6333333 L11.7251938,19.56875 Z" id="Shape" fill-rule="nonzero"></path>
                        <polygon id="Path" points="22.3368217 0.258333333 28.8217054 0.258333333 28.8217054 25.1229167 22.3368217 25.1229167"></polygon>
                        <path d="M30.1317829,16.275 C30.1317829,10.65625 33.8,6.91041667 39.4988372,6.91041667 C45.1976744,6.91041667 48.8003876,10.7208333 48.8003876,16.275 C48.8003876,21.89375 45.1976744,25.6395833 39.4988372,25.6395833 C33.8,25.6395833 30.1317829,21.89375 30.1317829,16.275 Z M42.3155039,16.275 C42.3155039,13.175 41.3329457,11.2375 39.3678295,11.2375 C37.4027132,11.2375 36.4856589,13.175 36.4856589,16.275 C36.4856589,19.375 37.4027132,21.3770833 39.3678295,21.3770833 C41.3329457,21.3125 42.3155039,19.375 42.3155039,16.275 Z" id="Shape" fill-rule="nonzero"></path>
                        <path d="M49.5209302,16.275 C49.5209302,10.65625 53.1891473,6.91041667 58.8879845,6.91041667 C64.5868217,6.91041667 68.124031,10.65625 68.124031,16.275 C68.124031,21.89375 64.5213178,25.6395833 58.8224806,25.6395833 C53.1891473,25.6395833 49.5209302,21.89375 49.5209302,16.275 Z M61.7046512,16.275 C61.7046512,13.175 60.722093,11.2375 58.7569767,11.2375 C56.7918605,11.2375 55.8748062,13.175 55.8748062,16.275 C55.8748062,19.375 56.7918605,21.3770833 58.7569767,21.3770833 C60.722093,21.3125 61.7046512,19.375 61.7046512,16.275 Z" id="Shape" fill-rule="nonzero"></path>
                        <path d="M69.4341085,7.3625 L75.4604651,7.3625 L75.4604651,10.0104167 L75.5914729,10.0104167 C76.7705426,7.94375 78.4081395,6.84583333 81.0282946,6.84583333 C83.3209302,6.84583333 85.024031,7.94375 85.8755814,9.88125 L86.0065891,9.88125 C87.4476744,7.55625 89.3472868,6.84583333 91.5744186,6.84583333 C95.7666667,6.84583333 97.5352713,9.88125 97.5352713,13.95 L97.5352713,25.0583333 L91.2468992,25.0583333 L91.2468992,15.0479167 C91.2468992,13.2395833 90.6573643,12.0770833 89.0852713,12.0770833 C87.5131783,12.0770833 86.7271318,13.4979167 86.7271318,15.4354167 L86.7271318,25.0583333 L80.4387597,25.0583333 L80.4387597,15.0479167 C80.4387597,13.2395833 79.8492248,12.0770833 78.2771318,12.0770833 C76.7050388,12.0770833 75.9189922,13.4979167 75.9189922,15.4354167 L75.9189922,25.0583333 L69.4341085,25.0583333 C69.4341085,25.0583333 69.4341085,7.3625 69.4341085,7.3625 Z" id="Path"></path>
                        <path d="M105.46124,22.7333333 L105.395736,22.7333333 L105.395736,25.0583333 L99.3693798,25.0583333 L99.3693798,0.258333333 L105.657752,0.258333333 L105.657752,9.17083333 L105.78876,9.17083333 C106.967829,7.62083333 108.605426,6.78125 110.898062,6.78125 C115.417829,6.78125 118.037984,10.7854167 118.037984,16.1458333 C118.037984,22.1520833 115.221318,25.6395833 110.505039,25.6395833 C108.539922,25.6395833 106.509302,24.7354167 105.46124,22.7333333 Z M111.553101,16.08125 C111.553101,13.2395833 110.505039,11.3666667 108.605426,11.3666667 C106.64031,11.3666667 105.46124,13.2395833 105.46124,16.08125 C105.46124,18.9229167 106.705814,20.7958333 108.605426,20.7958333 C110.505039,20.7958333 111.553101,18.9875 111.553101,16.08125 Z" id="Shape" fill-rule="nonzero"></path>
                        <path d="M118.758527,16.2104167 C118.758527,10.65625 122.492248,6.84583333 127.863566,6.84583333 C130.549225,6.84583333 132.579845,7.68541667 134.151938,9.17083333 C136.248062,11.1729167 137.165116,14.2729167 137.099612,17.8895833 L125.046899,17.8895833 C125.308915,20.0854167 126.356977,21.2479167 128.256589,21.2479167 C129.370155,21.2479167 130.352713,20.73125 130.745736,19.56875 L136.837597,19.56875 C135.789535,23.6375 132.579845,25.6395833 128.060078,25.6395833 C122.492248,25.575 118.758527,21.8291667 118.758527,16.2104167 Z M125.046899,14.3375 L130.81124,14.3375 C130.680233,12.20625 129.501163,11.1083333 127.994574,11.1083333 C126.225969,11.04375 125.243411,12.2708333 125.046899,14.3375 Z" id="Shape" fill-rule="nonzero"></path>
                        <path d="M144.239535,10.3979167 L144.370543,10.3979167 C145.68062,7.94375 147.383721,6.975 149.545349,6.975 C150.06938,6.975 150.396899,7.03958333 150.593411,7.16875 L150.593411,12.59375 L150.462403,12.59375 C146.728682,11.9479167 144.567054,13.6916667 144.567054,17.6958333 L144.567054,25.1229167 L138.213178,25.1229167 L138.213178,7.3625 L144.239535,7.3625 L144.239535,10.3979167 Z" id="Path"></path>
                        <path d="M151.24845,25.1229167 L157.34031,25.1229167 C157.602326,25.8979167 158.388372,26.6083333 159.894961,26.6083333 C161.925581,26.6083333 162.646124,25.38125 162.646124,23.5083333 L162.646124,22.2166667 L162.515116,22.2166667 C161.532558,23.3791667 160.156977,24.21875 158.19186,24.21875 C154.327132,24.21875 150.92093,21.3770833 150.92093,15.8229167 C150.92093,10.7208333 153.672093,6.78125 157.864341,6.78125 C160.287984,6.78125 161.72907,7.75 162.711628,9.23541667 L162.842636,9.23541667 L162.842636,7.29791667 L168.868992,7.29791667 L168.868992,22.66875 C168.868992,25.5104167 167.886434,27.70625 166.379845,28.9979167 C164.807752,30.3541667 162.58062,30.9354167 160.025969,30.9354167 C155.178682,31 151.837984,29.0625 151.24845,25.1229167 Z M162.90814,15.5645833 C162.90814,13.36875 161.860078,11.5604167 160.025969,11.5604167 C158.257364,11.5604167 157.143798,13.1104167 157.143798,15.5645833 C157.143798,17.9541667 158.257364,19.6333333 160.025969,19.6333333 C161.794574,19.6333333 162.90814,17.8895833 162.90814,15.5645833 Z" id="Shape" fill-rule="nonzero"></path>
                    </g>
                </g>
            </g>
        </g>
    </g>
</svg>