<?xml version="1.0" encoding="UTF-8"?>
<svg width="233px" height="33px" viewBox="0 0 233 33" version="1.1" xmlns="http://www.w3.org/2000/svg" xmlns:xlink="http://www.w3.org/1999/xlink">
    <!-- Generator: Sketch 52.5 (67469) - http://www.bohemiancoding.com/sketch -->
    <title>techcrunch-seeklogo.com</title>
    <desc>Created with Sketch.</desc>
    <defs>
        <polygon id="path-1" points="0 0.0821198157 233 0.0821198157 233 32.9908756 0 32.9908756"></polygon>
    </defs>
    <g id="Page-1" stroke="none" stroke-width="1" fill="none" fill-rule="evenodd">
        <g id="Home-Page-Sample-1---Old-Style-Copy" transform="translate(-396.000000, -833.000000)">
            <g id="Header">
                <g id="Media-Logos" transform="translate(165.000000, 828.000000)">
                    <g id="techcrunch-seeklogo.com" transform="translate(231.000000, 5.000000)">
                        <polyline id="Fill-1" fill="#606162" points="87.5818919 12.9439078 87.5818919 27.5136359 82.2688847 27.5136359 82.2688847 12.9439078 76.9010808 12.9439078 76.9010808 8.30687558 92.9496958 8.30687558 92.9496958 12.9439078 87.5818919 12.9439078"></polyline>
                        <path d="M98.834957,16.4560507 C97.7118515,16.4560507 97.0822202,17.224023 96.91783,18.6506267 L101.02622,18.6506267 C100.778951,17.1966498 100.285477,16.4560507 98.834957,16.4560507 Z M105.352582,21.7246452 L96.91783,21.7246452 C97.0822202,23.3159447 98.0127023,24.0284101 99.3549948,24.0284101 C100.614561,24.0284101 101.655851,23.7539171 103.079655,23.013318 L104.968701,26.1688479 C103.189401,27.2108571 101.353786,27.8150461 99.1090925,27.8150461 C94.7812124,27.8150461 92.3988443,24.7410276 92.3988443,20.3235899 C92.3988443,15.3583825 95.1918085,12.8065853 98.9712658,12.8065853 C102.915265,12.8065853 105.380511,15.413129 105.380511,20.7629309 C105.380511,21.1755069 105.380511,21.476765 105.352582,21.7246452 Z" id="Fill-2" fill="#606162"></path>
                        <path d="M114.523826,27.8150461 C110.307209,27.8150461 107.787166,25.1268387 107.787166,20.2700599 C107.787166,15.8520138 110.033074,12.8065853 114.633571,12.8065853 C117.344872,12.8065853 118.906503,14.0684931 120.165765,16.0989816 L116.769885,18.6781521 C116.085457,17.4156359 115.61885,16.8123594 114.552059,16.8123594 C113.291279,16.8123594 112.661648,18.0747235 112.661648,20.3517235 C112.661648,22.6300922 113.346227,23.8086636 114.688368,23.8086636 C115.61885,23.8086636 116.276715,23.287659 117.180481,21.943023 L120.302226,24.3847189 C118.632367,26.8545484 117.070888,27.8150461 114.523826,27.8150461" id="Fill-3" fill="#606162"></path>
                        <path d="M131.335952,27.5136359 L131.335952,19.3364793 C131.335952,17.4705346 130.706321,16.9770553 129.692961,16.9770553 C128.651519,16.9770553 128.021736,17.4705346 128.021736,19.2814286 L128.021736,27.5136359 L123.092458,27.5136359 L123.092458,9.48681567 L128.021736,7.51122581 L128.021736,14.0684931 C128.925503,13.3827926 129.938863,12.8065853 131.636803,12.8065853 C134.786781,12.8065853 136.293312,14.9190415 136.293312,18.7055253 L136.293312,27.5136359 L131.335952,27.5136359" id="Fill-4" fill="#606162"></path>
                        <path d="M148.093282,27.8150461 C142.396546,27.8150461 139.356313,23.5892212 139.356313,17.9098756 C139.356313,11.7365945 142.971532,8.00485714 148.120149,8.00485714 C152.831303,8.00485714 154.693785,10.0353456 156.0083,13.6572857 L151.188311,15.5504516 C150.502517,13.7669309 149.846019,12.6418894 148.093282,12.6418894 C145.875152,12.6418894 144.916741,14.8639908 144.916741,17.9098756 C144.916741,20.8461152 145.847223,23.1780138 148.148079,23.1780138 C149.817937,23.1780138 150.530447,22.2725668 151.570674,20.4615207 L156.062945,22.84847 C154.775752,25.3731982 152.638528,27.8150461 148.093282,27.8150461" id="Fill-5" fill="#606162"></path>
                        <path d="M168.18957,18.5408295 C167.559635,17.854977 166.847733,17.3339724 165.889928,17.3339724 C164.683186,17.3339724 163.943961,17.9098756 163.943961,19.665871 L163.943961,27.5136359 L159.01529,27.5136359 L159.01529,13.1081475 L163.943961,13.1081475 L163.943961,14.150765 C164.792476,13.3277419 165.751798,12.8065853 167.013186,12.8065853 C168.052958,12.8065853 168.76486,13.0530968 169.34015,13.4101659 L168.18957,18.5408295" id="Fill-6" fill="#606162"></path>
                        <path d="M179.907876,27.5136359 L179.907876,26.5519217 C179.032039,27.2376221 177.990749,27.8150461 176.321042,27.8150461 C173.171368,27.8150461 171.665596,25.7027419 171.665596,21.9148894 L171.665596,13.1081475 L176.62159,13.1081475 L176.62159,21.2853041 C176.62159,23.1498802 177.251524,23.6439677 178.265492,23.6439677 C179.279459,23.6439677 179.907876,23.1498802 179.907876,21.3388341 L179.907876,13.1081475 L184.865388,13.1081475 L184.865388,27.5136359 L179.907876,27.5136359" id="Fill-7" fill="#606162"></path>
                        <path d="M196.665661,27.5136359 L196.665661,19.3364793 C196.665661,17.4705346 196.035726,16.9770553 195.023277,16.9770553 C193.981987,16.9770553 193.352052,17.4705346 193.352052,19.2814286 L193.352052,27.5136359 L188.421863,27.5136359 L188.421863,13.1081475 L193.352052,13.1081475 L193.352052,14.0684931 C194.255212,13.3827926 195.269179,12.8065853 196.966208,12.8065853 C200.115883,12.8065853 201.623173,14.9190415 201.623173,18.7055253 L201.623173,27.5136359 L196.665661,27.5136359" id="Fill-8" fill="#606162"></path>
                        <path d="M211.230059,27.8150461 C207.01329,27.8150461 204.49355,25.1268387 204.49355,20.2700599 C204.49355,15.8520138 206.740065,12.8065853 211.340866,12.8065853 C214.051863,12.8065853 215.613798,14.0684931 216.87215,16.0989816 L213.476573,18.6781521 C212.791993,17.4156359 212.325993,16.8123594 211.258899,16.8123594 C209.997511,16.8123594 209.367577,18.0747235 209.367577,20.3517235 C209.367577,22.6300922 210.052156,23.8086636 211.395511,23.8086636 C212.325993,23.8086636 212.983251,23.287659 213.88641,21.943023 L217.008762,24.3847189 C215.339055,26.8545484 213.777121,27.8150461 211.230059,27.8150461" id="Fill-9" fill="#606162"></path>
                        <g id="Group-14">
                            <mask id="mask-2" fill="white">
                                <use xlink:href="#path-1"></use>
                            </mask>
                            <g id="Clip-11"></g>
                            <path d="M228.042489,27.5136359 L228.042489,19.3364793 C228.042489,17.4705346 227.412554,16.9770553 226.400104,16.9770553 C225.357296,16.9770553 224.728879,17.4705346 224.728879,19.2814286 L224.728879,27.5136359 L219.798691,27.5136359 L219.798691,9.48681567 L224.728879,7.51122581 L224.728879,14.0684931 C225.632039,13.3827926 226.646007,12.8065853 228.343036,12.8065853 C231.49271,12.8065853 233,14.9190415 233,18.7055253 L233,27.5136359 L228.042489,27.5136359" id="Fill-10" fill="#606162" mask="url(#mask-2)"></path>
                            <polyline id="Fill-12" fill="#606162" mask="url(#mask-2)" points="0 0.0821198157 0 11.0546959 10.9522143 11.0546959 10.9522143 33 21.9045805 33 21.9045805 11.0546959 32.856643 11.0546959 32.856643 0.0821198157 0 0.0821198157"></polyline>
                            <polyline id="Fill-13" fill="#606162" mask="url(#mask-2)" points="43.8090091 22.0272719 43.8090091 11.0546959 32.856643 11.0546959 32.856643 33 65.7134378 33 65.7134378 22.0272719 43.8090091 22.0272719"></polyline>
                        </g>
                        <polygon id="Fill-15" fill="#606162" points="43.8090091 11.0546959 65.7134378 11.0546959 65.7134378 0.0821198157 43.8090091 0.0821198157"></polygon>
                    </g>
                </g>
            </g>
        </g>
    </g>
</svg>