<?xml version="1.0" encoding="UTF-8"?>
<svg width="40px" height="41px" viewBox="0 0 40 41" version="1.1" xmlns="http://www.w3.org/2000/svg" xmlns:xlink="http://www.w3.org/1999/xlink">
    <!-- Generator: Sketch 52.5 (67469) - http://www.bohemiancoding.com/sketch -->
    <title>Group 8</title>
    <desc>Created with Sketch.</desc>
    <g id="Page-1" stroke="none" stroke-width="1" fill="none" fill-rule="evenodd">
        <g id="Home-Page-Sample-1---Old-Style-Copy" transform="translate(-1128.000000, -2707.000000)" fill="#000000">
            <g id="Section-4---Features" transform="translate(0.000000, 2283.000000)">
                <g id="Row-1" transform="translate(165.000000, 405.000000)">
                    <g id="Time-&amp;-Attendance-Block" transform="translate(855.000000, 0.000000)">
                        <g id="Time-&amp;-Attendance-Icon" transform="translate(88.000000, 0.000000)">
                            <g id="Group-8" transform="translate(20.000000, 19.000000)">
                                <ellipse id="Oval" transform="translate(32.333581, 32.444135) rotate(-0.247750) translate(-32.333581, -32.444135) " cx="32.3335813" cy="32.4441351" rx="2.86669395" ry="2.89263564"></ellipse>
                                <ellipse id="Oval" transform="translate(24.351793, 37.618243) rotate(-59.873479) translate(-24.351793, -37.618243) " cx="24.3517933" cy="37.6182435" rx="2.48333004" ry="2.47225459"></ellipse>
                                <ellipse id="Oval" transform="translate(14.864773, 37.976005) rotate(-29.497575) translate(-14.864773, -37.976005) " cx="14.8647733" cy="37.9760054" rx="2.13808796" ry="2.14803287"></ellipse>
                                <ellipse id="Oval" transform="translate(7.079337, 33.968150) rotate(-89.121782) translate(-7.079337, -33.968150) " cx="7.07933733" cy="33.9681498" rx="1.34542024" ry="1.33335946"></ellipse>
                                <path d="M39.7333333,20.5371918 C39.7333333,22.5552911 39.4666667,24.4388505 38.8666667,26.3224099 L33.2,24.6406605 C33.6666667,23.1607209 33.9333333,21.5462414 33.9333333,19.9317619 C33.9333333,18.2500125 33.6666667,16.702803 33.2,15.2228634 C32.2666667,12.2629844 30.4,9.70672519 28.0666667,7.82316579 C28,7.75589581 27.9333333,7.68862584 27.8666667,7.68862584 C26.8,6.88138609 25.6,6.20868631 24.3333333,5.67052648 C23.5333333,5.33417658 22.6666667,5.06509667 21.7333333,4.86328673 L21.4,4.79601675 L21.0666667,4.72874678 C20.8666667,4.6614768 20.6,4.6614768 20.4,4.59420682 L20.0666667,4.52693684 C19.9333333,4.52693684 19.8666667,4.52693684 19.7333333,4.52693684 L19.3333333,4.52693684 L19.1333333,4.52693684 L19.0666667,4.52693684 L19,4.52693684 C17.2,4.45966686 15.3333333,4.72874678 13.6,5.2669066 C11.8666667,5.80506643 10.2,6.67957616 8.8,7.75589581 C7.4,8.83221547 6.2,10.1103451 5.26666667,11.4557446 C5,11.7920945 4.8,12.1284444 4.6,12.4647943 C4.46666667,12.6666043 4.4,12.8011442 4.33333333,13.0029541 C4.26666667,13.2047641 4.13333333,13.339304 4.06666667,13.541114 C3.73333333,14.2138138 3.46666667,14.9537835 3.2,15.6264833 C3.06666667,15.9628332 3,16.2991831 2.86666667,16.635533 C2.8,16.770073 2.8,16.9718829 2.73333333,17.1064228 C2.73333333,17.2409628 2.66666667,17.4427727 2.66666667,17.5773127 C2.66666667,17.6445827 2.6,17.7118527 2.6,17.8463926 C2.6,17.9136626 2.6,17.9809326 2.53333333,18.1154725 C2.53333333,18.2500125 2.46666667,18.4518224 2.46666667,18.5863624 C2.4,18.9227123 2.4,19.1917922 2.33333333,19.4608721 C2.33333333,19.797222 2.26666667,20.0663019 2.26666667,20.4026518 L2.26666667,20.4699218 C2.26666667,20.4699218 2.26666667,20.4699218 2.26666667,20.4699218 L2.26666667,20.6044617 C2.26666667,20.6717317 2.26666667,20.7390017 2.26666667,20.8062717 C2.26666667,20.9408116 2.26666667,21.0753516 2.26666667,21.2098915 C2.26666667,21.7480514 2.26666667,22.2189412 2.33333333,22.6225611 C2.4,23.4970708 2.53333333,24.1697706 2.66666667,24.5733905 C2.73333333,24.7752004 2.73333333,24.9770103 2.8,25.1115503 C2.8,25.2460903 2.86666667,25.3133602 2.86666667,25.3133602 L1.06666667,25.7842501 C1.06666667,25.7842501 1.06666667,25.7169801 1,25.5824402 C0.933333333,25.4479002 0.866666667,25.2460903 0.8,25.0442803 C0.733333333,24.7752004 0.6,24.4388505 0.533333333,24.0352306 C0.333333333,22.958911 0.266666667,21.8153214 0.266666667,20.6044617 C0.266666667,9.57218524 9.13333333,0.625278078 20,0.625278078 C24.9333333,0.625278078 29.4,2.4415675 32.8666667,5.40144656 C34.4,6.74684613 35.7333333,8.22678566 36.7333333,9.97580511 C38.6,13.0702241 39.7333333,16.702803 39.7333333,20.5371918 Z" id="Path"></path>
                                <path d="M11.7333333,19.9990319 C11.4666667,20.6717317 11.6666667,21.3444315 12.1333333,21.8825913 C13.6666667,23.4298008 14.6666667,24.5061205 16.2666667,26.05333 C16.4666667,26.2551399 16.7333333,26.3896799 16.9333333,26.4569499 C17.6666667,26.6587598 18.2666667,26.5242199 18.8,25.98606 C20.0666667,24.7079304 21.5333333,23.2952609 23.2666667,21.5462414 C24.6666667,20.1335719 26.3333333,18.5863624 27.6666667,17.2409628 C27.7333333,17.1736928 27.7333333,17.1736928 27.8,17.1064228 C28.3333333,16.568263 28.4,15.6264833 28,15.0210535 C27.6666667,14.4828937 27.1333333,14.2138138 26.5333333,14.2138138 C26.0666667,14.2138138 25.6,14.4156237 25.2666667,14.7519736 C24.1333333,15.8955632 22.6666667,17.3082328 21.6,18.3845524 L21.4,18.5863624 C20.2666667,19.729952 18.9333333,21.0080816 17.8,22.1516712 L17.5333333,22.4207512 L14.6666667,19.4608721 C14.3333333,19.1245222 13.8666667,18.9227123 13.4,18.9227123 C13.3333333,18.9227123 13.3333333,18.9227123 13.2666667,18.9227123 C12.5333333,18.9227123 12,19.3263321 11.7333333,19.9990319 Z" id="Path"></path>
                            </g>
                        </g>
                    </g>
                </g>
            </g>
        </g>
    </g>
</svg>