<?xml version="1.0" encoding="UTF-8"?>
<svg width="40px" height="39px" viewBox="0 0 40 39" version="1.1" xmlns="http://www.w3.org/2000/svg" xmlns:xlink="http://www.w3.org/1999/xlink">
    <!-- Generator: Sketch 52.5 (67469) - http://www.bohemiancoding.com/sketch -->
    <title>Group 10</title>
    <desc>Created with Sketch.</desc>
    <g id="Page-1" stroke="none" stroke-width="1" fill="none" fill-rule="evenodd">
        <g id="Home-Page-Sample-1---Old-Style-Copy" transform="translate(-558.000000, -3076.000000)" fill="#000000">
            <g id="Section-4---Features" transform="translate(0.000000, 2283.000000)">
                <g id="Row-2" transform="translate(165.000000, 773.000000)">
                    <g id="Schedule-Flexibility" transform="translate(285.000000, 0.000000)">
                        <g id="Schedule-Flexibility-Icon" transform="translate(88.000000, 0.000000)">
                            <g id="Group-10" transform="translate(20.000000, 20.000000)">
                                <rect id="Rectangle" x="19.0016103" y="6.86523973" width="1.61030596" height="2.41750247"></rect>
                                <rect id="Rectangle" x="29.8711755" y="18.549835" width="2.41545894" height="1.61166832"></rect>
                                <rect id="Rectangle" x="19.0016103" y="29.4285961" width="1.61030596" height="2.41750247"></rect>
                                <rect id="Rectangle" x="7.32689211" y="18.549835" width="2.41545894" height="1.61166832"></rect>
                                <path d="M27.6247987,12.675304 C27.940517,12.3593186 27.940517,11.847005 27.6247987,11.5310195 C27.3090804,11.2150341 26.7971998,11.2150341 26.4814815,11.5310195 L25.6763285,12.3368537 L19.8067633,18.2113847 L15.547504,13.948522 C15.3432701,13.7441152 15.0455926,13.6642853 14.7666038,13.7391034 C14.4876151,13.8139214 14.2697,14.0320208 14.1949452,14.3112456 C14.1201904,14.5904704 14.1999528,14.8883997 14.4041868,15.0928065 L18.6634461,19.3556692 L17.6247987,20.3951952 C17.4723731,20.546504 17.3866358,20.7524719 17.3866358,20.9673375 C17.3866358,21.1822031 17.4723731,21.388171 17.6247987,21.5394797 C17.7759795,21.6920343 17.9817733,21.7778441 18.1964573,21.7778441 C18.4111413,21.7778441 18.6169351,21.6920343 18.7681159,21.5394797 L19.8067633,20.4999537 L20.8454106,21.5394797 C20.9965915,21.6920343 21.2023852,21.7778441 21.4170692,21.7778441 C21.6317532,21.7778441 21.837547,21.6920343 21.9887279,21.5394797 C22.1411535,21.388171 22.2268908,21.1822031 22.2268908,20.9673375 C22.2268908,20.7524719 22.1411535,20.546504 21.9887279,20.3951952 L20.9500805,19.3556692 L27.2463768,13.0540461 L27.6247987,12.675304 Z" id="Path"></path>
                                <path d="M19.8067633,4.04482018 C22.3622167,4.04104783 24.877118,4.68416535 27.1175523,5.91435543 C28.1286266,6.45940752 29.0718242,7.12209787 29.9275362,7.88864911 L27.4557166,9.59701753 L33.4057971,12.3610287 L36.3123994,13.7148301 L35.9098229,8.61389986 L35.4750403,4.04482018 L33.3091787,5.54367172 C32.5157207,4.75876358 31.6534266,4.04676908 30.7326892,3.41626954 C24.8195502,-0.640708779 17.1482346,-1.08778888 10.8045775,2.25487002 C4.46092033,5.59752893 0.487670146,12.1804721 0.483091787,19.3556692 L4.50885668,19.3556692 C4.50885668,10.8997208 11.3579628,4.04482018 19.8067633,4.04482018 Z" id="Path"></path>
                                <path d="M35.1046699,19.3556692 C35.1064537,21.0193265 34.8344283,22.6719177 34.2995169,24.2470825 C32.202448,30.4724895 26.3709003,34.6650286 19.8067633,34.6665182 C17.2513099,34.6702905 14.7364086,34.027173 12.4959742,32.7969829 C11.4849,32.2519308 10.5417023,31.5892405 9.68599034,30.8226892 L12.15781,29.1143208 L6.20772947,26.3503097 L5.03220612,25.8023424 L3.30112721,24.9965083 L3.37359098,25.8023424 L3.74396135,30.0974385 L4.13848631,34.6665182 L6.30434783,33.1676666 C7.09780583,33.9525748 7.96009995,34.6645693 8.88083736,35.2950688 C13.8319411,38.6914078 20.0788715,39.5921599 25.7865314,37.7327204 C31.4941912,35.8732808 36.014408,31.4648111 38.0193237,25.8023424 C38.7591292,23.7338589 39.1350651,21.5526766 39.130477,19.3556692 L35.1046699,19.3556692 Z" id="Path"></path>
                            </g>
                        </g>
                    </g>
                </g>
            </g>
        </g>
    </g>
</svg>