<?xml version="1.0" encoding="UTF-8"?>
<svg width="33px" height="39px" viewBox="0 0 33 39" version="1.1" xmlns="http://www.w3.org/2000/svg" xmlns:xlink="http://www.w3.org/1999/xlink">
    <!-- Generator: Sketch 52.5 (67469) - http://www.bohemiancoding.com/sketch -->
    <title>Shape</title>
    <desc>Created with Sketch.</desc>
    <g id="Page-1" stroke="none" stroke-width="1" fill="none" fill-rule="evenodd">
        <g id="Home-Page-Sample-1---Old-Style-Copy" transform="translate(-846.000000, -3076.000000)" fill="#000000" fill-rule="nonzero">
            <g id="Section-4---Features" transform="translate(0.000000, 2283.000000)">
                <g id="Row-2" transform="translate(165.000000, 773.000000)">
                    <g id="Security" transform="translate(570.000000, 0.000000)">
                        <g id="Security-Icon" transform="translate(88.000000, 0.000000)">
                            <path d="M55.2657005,26.8194684 C50.2363929,24.5914981 45.2122383,22.3532131 40.1932367,20.1046135 C39.962466,19.9874553 39.6897079,19.9874553 39.4589372,20.1046135 C34.4115942,22.3661065 29.362963,24.6082594 24.3130435,26.8310724 C24.0595238,26.8986186 23.8945923,27.1429238 23.92657,27.403537 C23.9613527,30.8460605 23.9227053,34.292452 23.9613527,37.7388435 C23.9684168,38.8671457 24.0601402,39.9933234 24.2357488,41.107875 C24.8000339,44.6549547 26.2164577,48.0118523 28.363285,50.890057 C31.1072464,54.5917368 34.6164251,57.2374515 39.0608696,58.5757808 C39.5411194,58.7287007 40.0569482,58.7287007 40.5371981,58.5757808 C44.6419294,57.3486996 48.2494632,54.8449988 50.836715,51.4277095 C53.9844548,47.4721571 55.6887371,42.5596716 55.6676329,37.5028953 C55.6676329,36.0137138 55.6676329,34.5284002 55.6676329,33.0392187 C55.6676329,31.1787088 55.6676329,29.3181989 55.6676329,27.457689 C55.7073146,27.1752668 55.5373988,26.9054607 55.2657005,26.8194684 Z M29.7584541,49.4704995 C27.8810528,46.9485828 26.6424639,44.008759 26.1487923,40.9028708 C25.98934,39.9217788 25.9040738,38.9300444 25.8937198,37.9361117 C25.8937198,34.9152006 25.8937198,31.8942895 25.8937198,28.8733785 C25.8641493,28.6463636 26.0057709,28.4321033 26.226087,28.3705379 C30.64219,26.4107493 35.0647343,24.4432246 39.4937198,22.4679639 C39.5849093,22.426153 39.6833581,22.4025053 39.7835749,22.3983398 L39.7835749,56.3168665 C39.5699154,56.3131037 39.3578497,56.2792486 39.1536232,56.2162984 C35.3628177,55.0692092 32.0588143,52.696911 29.7584541,49.4704995 Z" id="Shape"></path>
                        </g>
                    </g>
                </g>
            </g>
        </g>
    </g>
</svg>