<?xml version="1.0" encoding="UTF-8"?>
<svg width="31px" height="39px" viewBox="0 0 31 39" version="1.1" xmlns="http://www.w3.org/2000/svg" xmlns:xlink="http://www.w3.org/1999/xlink">
    <!-- Generator: Sketch 52.5 (67469) - http://www.bohemiancoding.com/sketch -->
    <title>Shape</title>
    <desc>Created with Sketch.</desc>
    <g id="Page-1" stroke="none" stroke-width="1" fill="none" fill-rule="evenodd">
        <g id="Home-Page-Sample-1---Old-Style-Copy" transform="translate(-273.000000, -3076.000000)" fill="#000000" fill-rule="nonzero">
            <g id="Section-4---Features" transform="translate(0.000000, 2283.000000)">
                <g id="Row-2" transform="translate(165.000000, 773.000000)">
                    <g id="Task-Management">
                        <g id="Task-Management-Icon" transform="translate(88.000000, 0.000000)">
                            <path d="M49.8913043,20.1365245 L21.0869565,20.1365245 C20.7246377,20.1365245 20.4830918,20.3782748 20.4830918,20.7409001 L20.4830918,57.9704382 C20.4830918,58.272626 20.7246377,58.5748138 21.0869565,58.5748138 L49.8913043,58.5748138 C50.2536232,58.5748138 50.4951691,58.3330636 50.4951691,57.9704382 L50.4951691,20.7409001 C50.4951691,20.3782748 50.1932367,20.1365245 49.8913043,20.1365245 Z M32.1980676,55.0089977 C32.1980676,55.3111855 31.9565217,55.6133733 31.5942029,55.6133733 L25.9782609,55.6133733 C25.6763285,55.6133733 25.3743961,55.3716231 25.3743961,55.0089977 L25.3743961,49.6300547 C25.3743961,49.3278669 25.615942,49.0256791 25.9782609,49.0256791 L31.5942029,49.0256791 C31.8961353,49.0256791 32.1980676,49.2674293 32.1980676,49.6300547 L32.1980676,55.0089977 Z M32.1980676,46.3664263 C32.1980676,46.6686142 31.9565217,46.970802 31.5942029,46.970802 L25.9782609,46.970802 C25.6763285,46.970802 25.3743961,46.7290517 25.3743961,46.3664263 L25.3743961,40.9874833 C25.3743961,40.6852955 25.615942,40.3831077 25.9782609,40.3831077 L31.5942029,40.3831077 C31.8961353,40.3831077 32.1980676,40.624858 32.1980676,40.9874833 L32.1980676,46.3664263 Z M32.1980676,37.7842926 C32.1980676,38.0864804 31.9565217,38.3886682 31.5942029,38.3886682 L25.9782609,38.3886682 C25.6763285,38.3886682 25.3743961,38.1469179 25.3743961,37.7842926 L25.3743961,32.4053496 C25.3743961,32.1031618 25.615942,31.8009739 25.9782609,31.8009739 L31.5942029,31.8009739 C31.8961353,31.8009739 32.1980676,32.0427242 32.1980676,32.4053496 L32.1980676,37.7842926 Z M32.1980676,29.1417212 C32.1980676,29.443909 31.9565217,29.7460968 31.5942029,29.7460968 L25.9782609,29.7460968 C25.6763285,29.7460968 25.3743961,29.5043466 25.3743961,29.1417212 L25.3743961,23.7627782 C25.3743961,23.4605904 25.615942,23.1584026 25.9782609,23.1584026 L31.5942029,23.1584026 C31.8961353,23.1584026 32.1980676,23.4001529 32.1980676,23.7627782 L32.1980676,29.1417212 Z M45.6038647,52.9541206 L34.5531401,52.9541206 C34.2512077,52.9541206 33.9492754,52.7123703 33.9492754,52.349745 C33.9492754,51.9871196 34.1908213,51.7453693 34.5531401,51.7453693 L45.5434783,51.7453693 C45.8454106,51.7453693 46.147343,51.9871196 46.147343,52.349745 C46.147343,52.7123703 45.9057971,52.9541206 45.6038647,52.9541206 Z M45.6038647,44.3115492 L34.5531401,44.3115492 C34.2512077,44.3115492 33.9492754,44.069799 33.9492754,43.7071736 C33.9492754,43.3445483 34.1908213,43.102798 34.5531401,43.102798 L45.5434783,43.102798 C45.8454106,43.102798 46.147343,43.3445483 46.147343,43.7071736 C46.147343,44.069799 45.9057971,44.3115492 45.6038647,44.3115492 Z M45.6038647,35.6689779 L34.5531401,35.6689779 C34.2512077,35.6689779 33.9492754,35.4272277 33.9492754,35.0646023 C33.9492754,34.7624145 34.1908213,34.4602267 34.5531401,34.4602267 L45.5434783,34.4602267 C45.8454106,34.4602267 46.147343,34.7019769 46.147343,35.0646023 C46.2077295,35.4272277 45.9057971,35.6689779 45.6038647,35.6689779 Z M45.6038647,27.0264066 L34.5531401,27.0264066 C34.2512077,27.0264066 33.9492754,26.7846563 33.9492754,26.4220309 C33.9492754,26.0594056 34.1908213,25.8176553 34.5531401,25.8176553 L45.5434783,25.8176553 C45.8454106,25.8176553 46.147343,26.0594056 46.147343,26.4220309 C46.147343,26.7846563 45.9057971,27.0264066 45.6038647,27.0264066 Z" id="Shape"></path>
                        </g>
                    </g>
                </g>
            </g>
        </g>
    </g>
</svg>