<?xml version="1.0" encoding="UTF-8"?>
<svg width="54px" height="70px" viewBox="0 0 54 70" version="1.1" xmlns="http://www.w3.org/2000/svg" xmlns:xlink="http://www.w3.org/1999/xlink">
    <!-- Generator: Sketch 52.5 (67469) - http://www.bohemiancoding.com/sketch -->
    <title>food-icon</title>
    <desc>Created with Sketch.</desc>
    <defs>
        <path d="M18.5384774,0.679941305 L17.9234568,0.33527846 C17.6598765,0.33527846 17.4841564,0.33527846 17.2205761,0.421444171 L16.7812757,0.938438438 L14.1454733,9.8996724 L13.5304527,1.11076986 C13.5304527,0.938438438 13.3547325,0.679941305 13.2668724,0.593775594 L12.6518519,0.33527846 C12.3882716,0.33527846 12.2125514,0.421444171 12.0368313,0.593775594 L11.773251,1.11076986 L9.66460905,10.7613295 L7.55596708,1.19693557 C7.55596708,0.938438438 7.38024691,0.766107016 7.29238683,0.593775594 L6.67736626,0.33527846 C6.41378601,0.33527846 6.23806584,0.421444171 6.06234568,0.593775594 L5.71090535,1.19693557 L4.92016461,10.0720038 L2.28436214,1.02460415 C2.19650206,0.766107016 2.10864198,0.593775594 1.84506173,0.507609883 L1.14218107,0.421444171 C0.966460905,0.507609883 0.702880658,0.593775594 0.615020576,0.766107016 L0.439300412,1.36926699 L0.439300412,19.5502321 C0.439300412,21.7905405 0.790740741,23.6861862 1.4936214,25.237169 C2.10864198,26.5296547 2.89938272,27.5636432 3.86584362,28.3391346 C4.56872428,28.8561289 5.4473251,29.2869574 6.32592593,29.5454545 C6.41378601,29.5454545 6.58950617,29.6316203 6.67736626,29.6316203 L6.67736626,75.5579443 L6.76522634,75.9887729 C6.76522634,75.9887729 6.9409465,76.24727 7.20452675,76.5057671 C7.55596708,76.85043 7.90740741,77.1950928 8.34670782,77.3674242 C8.69814815,77.5397557 9.13744856,77.6259214 9.57674897,77.6259214 C9.84032922,77.6259214 10.0160494,77.6259214 10.2796296,77.5397557 C10.9825103,77.3674242 11.773251,76.85043 12.3882716,76.0749386 L12.5639918,75.4717786 L12.5639918,29.5454545 C12.6518519,29.5454545 12.827572,29.4592888 12.9154321,29.4592888 C13.7940329,29.2007917 14.5847737,28.7699631 15.3755144,28.1668032 C16.4298354,27.3913118 17.2205761,26.3573232 17.7477366,25.0648376 C18.4506173,23.5138548 18.8020576,21.6182091 18.8020576,19.4640663 L18.8020576,1.28310128 C18.7141975,1.11076986 18.6263374,0.852272727 18.5384774,0.679941305 Z" id="path-1"></path>
    </defs>
    <g id="Page-1" stroke="none" stroke-width="1" fill="none" fill-rule="evenodd">
        <g id="Home-Page-Sample-1---Old-Style-Copy" transform="translate(-772.000000, -1931.000000)">
            <g id="Section-3---Solutions" transform="translate(0.000000, 1459.000000)">
                <g id="Group-6" transform="translate(166.000000, 153.000000)">
                    <g id="Food-Service-Block" transform="translate(569.000000, 263.000000)">
                        <g id="food-icon" transform="translate(30.000000, 56.000000)">
                            <g id="Group-4" transform="translate(30.656339, 37.413028) rotate(35.000000) translate(-30.656339, -37.413028) translate(21.156339, -1.586972)">
                                <g id="Group">
                                    <mask id="mask-2" fill="white">
                                        <use xlink:href="#path-1"></use>
                                    </mask>
                                    <use id="Mask" fill="#000000" fill-rule="nonzero" xlink:href="#path-1"></use>
                                    <path d="M9.48888889,36.4864865 L9.48888889,73.4465778 L9.58686506,73.8366804 C9.58686506,73.8366804 9.60009555,74.0393358 9.62655654,74.4446467 L9.44192879,78.0778554 C13.3642008,76.3510682 15.5026711,74.96335 15.8573398,73.9147009 L16.0532922,73.3685573 L16.0532922,38.7857223 L9.48888889,36.4864865 Z" id="Path" fill="#21C16B" fill-rule="nonzero" mask="url(#mask-2)"></path>
                                </g>
                                <path d="M16.9569959,19.5502321 C16.9569959,21.4458777 16.6934156,23.0830262 16.0783951,24.4616776 C15.6390947,25.4956661 15.0240741,26.2711575 14.2333333,26.9604832 C13.5304527,27.4774775 12.827572,27.7359746 12.3882716,27.908306 C11.9489712,28.0806375 11.5975309,28.0806375 11.5975309,28.0806375 L10.8067901,28.9422946 L10.8067901,75.2132815 C10.4553498,75.5579443 10.1039095,75.8164414 9.75246914,75.9026072 C9.48888889,75.9887729 9.31316872,75.9026072 9.04958848,75.8164414 C8.78600823,75.7302757 8.61028807,75.4717786 8.52242798,75.3856129 C8.52242798,75.3856129 8.4345679,75.2994472 8.4345679,75.2994472 L8.4345679,28.8561289 L7.55596708,27.9944717 C7.55596708,27.9944717 7.20452675,27.9944717 6.76522634,27.8221403 C6.32592593,27.7359746 5.62304527,27.4774775 4.92016461,26.9604832 C4.12942387,26.3573232 3.51440329,25.5818318 3.07510288,24.5478433 C2.4600823,23.2553576 2.19650206,21.5320434 2.19650206,19.5502321 L2.19650206,6.97003822 L4.65658436,15.1557808 L6.41378601,14.9834494 L7.02880658,6.97003822 L8.78600823,15.1557808 L10.5432099,15.1557808 L12.3882716,6.97003822 L13.0032922,14.9834494 L14.7604938,15.1557808 L17.2205761,6.97003822 L16.9569959,19.5502321 Z" id="Path" fill="#FFFFFF" fill-rule="nonzero"></path>
                                <path d="M13.7061728,21.5320434 C13.3547325,21.5320434 13.0911523,21.7905405 13.0911523,22.1352034 C13.0911523,22.8245291 12.9154321,23.3415233 12.4761317,23.7723519 C11.6853909,24.5478433 10.4553498,24.5478433 10.3674897,24.4616776 C10.0160494,24.4616776 9.75246914,24.7201747 9.75246914,24.9786719 C9.75246914,25.237169 10.0160494,25.5818318 10.2796296,25.5818318 C10.2796296,25.5818318 10.2796296,25.5818318 10.3674897,25.5818318 C10.71893,25.5818318 12.2125514,25.4956661 13.2668724,24.5478433 C13.881893,23.9446833 14.2333333,23.0830262 14.2333333,22.0490377 C14.2333333,21.7905405 13.9697531,21.5320434 13.7061728,21.5320434 Z" id="Path" fill="#21C16B"></path>
                            </g>
                            <g id="Group-3" transform="translate(29.037810, 37.154789) rotate(-32.000000) translate(-29.037810, -37.154789) translate(24.037810, -1.845211)">
                                <path d="M6.51709402,77.6900118 C7.55982906,77.7760576 8.6025641,77.3458284 9.55840456,76.3993243 L9.81908832,75.7970035 L9.81908832,2.57200353 C9.81908832,2.39991187 9.64529915,0.6789953 8.34188034,0.162720329 C7.21225071,-0.267508813 5.90883191,0.334811986 4.25783476,1.96968273 C0.260683761,5.92779083 0.0868945869,21.41604 -5.45696821e-12,23.1369565 C-5.45696821e-12,24.0834606 -5.45696821e-12,32.429906 2.69373219,35.0973267 C3.04131054,35.44151 3.47578348,35.7856933 3.997151,35.8717391 L3.997151,75.7109577 L4.17094017,76.2272327 C4.25783476,76.3132785 5.12678063,77.5179201 6.51709402,77.6900118 Z" id="Shape" fill="#000000" fill-rule="nonzero"></path>
                                <path d="M5.75166678,35.3845045 L4.88272091,34.5240462 C4.70893174,34.5240462 4.36135339,34.4380004 4.01377504,34.0938171 C2.10209413,32.2008088 1.84141037,25.6613259 1.84141037,23.3380885 C1.84141037,18.7776596 2.53656707,6.30101449 5.57787761,3.37545632 C7.22887476,1.74058558 7.83713687,1.91267724 7.83713687,1.91267724 C8.01092604,1.99872307 8.18471522,2.42895221 8.18471522,2.77313552 L8.18471522,75.6539522 C7.66334769,76.0841814 7.22887476,76.256273 6.79440183,76.256273 C6.35992889,76.256273 6.01235054,75.9120897 5.83856137,75.739998 L5.75166678,35.3845045 Z" id="Path" fill="#FFFFFF" fill-rule="nonzero"></path>
                                <path d="M7.21225071,20.4695358 L7.21225071,11.4347239 C7.21225071,11.0905405 6.95156695,10.8324031 6.6039886,10.8324031 C6.43019943,10.8324031 6.25641026,10.9184489 6.16951567,11.0044947 C6.16951567,11.0905405 6.08262108,11.2626322 6.08262108,11.4347239 L6.08262108,20.4695358 C6.08262108,20.8137192 6.34330484,21.0718566 6.69088319,21.0718566 C6.95156695,21.0718566 7.21225071,20.8137192 7.21225071,20.4695358 Z" id="Path" fill="#21C16B"></path>
                                <path d="M7.21225071,8.853349 L7.21225071,6.70220329 C7.21225071,6.35801998 6.95156695,6.09988249 6.6039886,6.09988249 C6.43019943,6.09988249 6.25641026,6.18592832 6.16951567,6.27197415 C6.08262108,6.35801998 6.08262108,6.53011163 6.08262108,6.70220329 L6.08262108,8.853349 C6.08262108,9.19753231 6.34330484,9.4556698 6.69088319,9.4556698 C6.95156695,9.4556698 7.21225071,9.19753231 7.21225071,8.853349 Z" id="Path" fill="#21C16B"></path>
                            </g>
                        </g>
                    </g>
                </g>
            </g>
        </g>
    </g>
</svg>