<?xml version="1.0" encoding="UTF-8"?>
<svg width="80px" height="81px" viewBox="0 0 80 81" version="1.1" xmlns="http://www.w3.org/2000/svg" xmlns:xlink="http://www.w3.org/1999/xlink">
    <!-- Generator: Sketch 52.5 (67469) - http://www.bohemiancoding.com/sketch -->
    <title>Mobile &amp; Web Icon</title>
    <desc>Created with Sketch.</desc>
    <defs>
        <linearGradient x1="100%" y1="100%" x2="0%" y2="1.72254642e-14%" id="linearGradient-1">
            <stop stop-color="#F1014E" offset="0%"></stop>
            <stop stop-color="#FF6C4F" offset="100%"></stop>
        </linearGradient>
        <rect id="path-2" x="0" y="0" width="80" height="80" rx="40"></rect>
    </defs>
    <g id="Page-1" stroke="none" stroke-width="1" fill="none" fill-rule="evenodd">
        <g id="Mobile-&amp;-Web-Icon">
            <ellipse id="Oval" fill="#FFFFFF" cx="40" cy="40.0338409" rx="40" ry="40.0338409"></ellipse>
            <g id="Icon-Copy-3">
                <g id="Rectangle-49">
                    <mask id="mask-3" fill="white">
                        <use xlink:href="#path-2"></use>
                    </mask>
                    <use id="Mask" fill="url(#linearGradient-1)" xlink:href="#path-2"></use>
                    <rect fill="#FFFFFF" opacity="0.150000006" mask="url(#mask-3)" transform="translate(45.179830, 43.235849) rotate(47.000000) translate(-45.179830, -43.235849) " x="25.1798296" y="1.52156299" width="40" height="83.4285714" rx="9.14285714"></rect>
                    <rect id="Rectangle-50" fill-opacity="0.0427423007" fill="#000000" mask="url(#mask-3)" transform="translate(44.256546, 43.072584) rotate(-43.000000) translate(-44.256546, -43.072584) " x="24.2565462" y="-3.2131299" width="40" height="92.5714286" rx="9.14285714"></rect>
                </g>
            </g>
            <path d="M56.6910313,29.3109856 L56.6914514,29.3109856 L56.6914514,50.3445639 L22.3990758,50.3445639 L22.3990758,29.3105674 C22.3990758,28.4186266 23.1274942,27.6935327 24.0235245,27.6935327 L33.5786599,27.6935327 L33.5786599,46.0767965 C33.5786599,46.7684374 34.1440874,47.3312843 34.8388994,47.3312843 L44.7746272,47.3312843 C45.4694392,47.3312843 46.0348666,46.7684374 46.0348666,46.0767965 L46.0348666,27.6939509 L55.0657425,27.6939509 C55.9621928,27.6939509 56.6910313,28.4190448 56.6910313,29.3109856 Z M34.8388994,23.9334147 L44.7746272,23.9334147 C45.2379752,23.9334147 45.6147868,24.3085065 45.6147868,24.7697399 L45.6147868,27.4844514 L45.6147868,46.0763783 C45.6147868,46.5376117 45.2379752,46.9127035 44.7746272,46.9127035 L34.8388994,46.9127035 C34.3755514,46.9127035 33.9987398,46.5376117 33.9987398,46.0763783 L33.9987398,27.4844514 L33.9987398,24.7697399 C33.9987398,24.3085065 34.3755514,23.9334147 34.8388994,23.9334147 Z M39.8067633,46.8064902 C40.278933,46.8064902 40.663306,46.4238714 40.663306,45.9538567 C40.663306,45.4838419 40.278933,45.1012232 39.8067633,45.1012232 C39.3345936,45.1012232 38.9502205,45.4838419 38.9502205,45.9538567 C38.9502205,46.4238714 39.3345936,46.8064902 39.8067633,46.8064902 Z M44.6091157,44.9749381 L44.6086957,44.9749381 L44.6086957,27.4844514 L44.6086957,24.6505635 L35.0044108,24.6505635 L35.0044108,27.4844514 L35.0044108,44.9749381 L44.6091157,44.9749381 Z M35.4244907,27.4844514 L35.4244907,25.0687261 L44.1890359,25.0687261 L44.1890359,27.4844514 L44.1890359,44.5567755 L35.4244907,44.5567755 L35.4244907,27.4844514 Z M39.8067633,46.3883276 C39.5657115,46.3883276 39.3703004,46.1938084 39.3703004,45.9538567 C39.3703004,45.713905 39.5657115,45.5193858 39.8067633,45.5193858 C40.0478151,45.5193858 40.2432262,45.713905 40.2432262,45.9538567 C40.2432262,46.1938084 40.0478151,46.3883276 39.8067633,46.3883276 Z M21.978996,50.7627265 L57.1115312,50.7627265 L59.0913674,50.7627265 L59.0913674,52.7703251 C59.0913674,53.8776196 57.9508507,54.7779237 56.5486242,54.7779237 L23.0653224,54.7779237 C21.6635161,54.7779237 20.5229994,53.8772014 20.5229994,52.7703251 L20.5229994,50.7627265 L21.978996,50.7627265 Z M43.0182735,52.7703251 L43.0178534,52.7703251 L43.0178534,52.5612438 L36.5960933,52.5612438 L36.5960933,52.7703251 L36.5960933,52.9794064 L43.0182735,52.9794064 L43.0182735,52.7703251 Z" id="Combined-Shape" fill="#FFFFFF"></path>
        </g>
    </g>
</svg>