<?xml version="1.0" encoding="UTF-8"?>
<svg width="80px" height="81px" viewBox="0 0 80 81" version="1.1" xmlns="http://www.w3.org/2000/svg" xmlns:xlink="http://www.w3.org/1999/xlink">
    <!-- Generator: Sketch 52.5 (67469) - http://www.bohemiancoding.com/sketch -->
    <title>Time &amp; Attendance Icon</title>
    <desc>Created with Sketch.</desc>
    <defs>
        <linearGradient x1="100%" y1="100%" x2="21.6238839%" y2="15.3000646%" id="linearGradient-1">
            <stop stop-color="#FF99CA" offset="0%"></stop>
            <stop stop-color="#FF38A8" offset="100%"></stop>
        </linearGradient>
        <rect id="path-2" x="0" y="0" width="80" height="80" rx="40"></rect>
    </defs>
    <g id="Page-1" stroke="none" stroke-width="1" fill="none" fill-rule="evenodd">
        <g id="Time-&amp;-Attendance-Icon">
            <ellipse id="Oval" fill="#FFFFFF" cx="40" cy="40.0338409" rx="40" ry="40.0338409"></ellipse>
            <g id="Rectangle-49">
                <mask id="mask-3" fill="white">
                    <use xlink:href="#path-2"></use>
                </mask>
                <use id="Mask" fill="url(#linearGradient-1)" xlink:href="#path-2"></use>
                <rect fill="#FFFFFF" opacity="0.150000006" mask="url(#mask-3)" transform="translate(45.179830, 43.235849) rotate(47.000000) translate(-45.179830, -43.235849) " x="25.1798296" y="1.52156299" width="40" height="83.4285714" rx="9.14285714"></rect>
                <rect id="Rectangle-50" fill-opacity="0.0427423007" fill="#000000" mask="url(#mask-3)" transform="translate(44.256546, 43.072584) rotate(-43.000000) translate(-44.256546, -43.072584) " x="24.2565462" y="-3.2131299" width="40" height="92.5714286" rx="9.14285714"></rect>
            </g>
            <g id="Group-8" transform="translate(20.000000, 20.000000)" fill="#FFFFFF">
                <path d="M32.0793103,34.7114661 C30.4960941,34.718374 29.2070939,33.4289088 29.200248,31.8313649 C29.193402,30.2338211 30.4713026,28.9331559 32.0545189,28.926248 C33.6377352,28.91934 34.9267353,30.2088053 34.9335813,31.8063492 C34.9404273,33.403893 33.6625266,34.7045582 32.0793103,34.7114661 Z M26.2185467,38.2421891 C25.5348071,39.4311072 24.025362,39.8356193 22.8471067,39.1456922 C21.6688513,38.455765 21.2679671,36.9326599 21.9517067,35.7437417 C22.6354462,34.5548235 24.1448913,34.1503114 25.3231467,34.8402386 C26.501402,35.5301658 26.9022862,37.0532709 26.2185467,38.2421891 Z M15.64856,39.2243846 C14.6230482,39.8097841 13.3214027,39.4454792 12.7412533,38.4106869 C12.161104,37.3758946 12.5221416,36.0624696 13.5476533,35.4770701 C14.5731651,34.8916705 15.8748106,35.2559754 16.45496,36.2907677 C17.0351094,37.32556 16.6740718,38.6389851 15.64856,39.2243846 Z M8.14587066,33.3634933 C8.13458383,34.1064627 7.52854008,34.6995257 6.79223405,34.6881368 C6.05592802,34.6767478 5.46818383,34.0652195 5.47947066,33.3222502 C5.49075749,32.5792808 6.09680125,31.9862177 6.83310728,31.9976067 C7.56941331,32.0089957 8.15715749,32.6205239 8.14587066,33.3634933 Z M39.4666667,19.9119137 C39.4666667,21.930013 39.2,23.8135724 38.6,25.6971318 L32.9333333,24.0153824 C33.4,22.5354428 33.6666667,20.9209634 33.6666667,19.3064839 C33.6666667,17.6247344 33.4,16.0775249 32.9333333,14.5975854 C32,11.6377063 30.1333333,9.08144712 27.8,7.19788771 C27.7333333,7.13061774 27.6666667,7.06334776 27.6,7.06334776 C26.5333333,6.25610801 25.3333333,5.58340823 24.0666667,5.0452484 C23.2666667,4.7088985 22.4,4.43981859 21.4666667,4.23800865 L21.1333333,4.17073868 L20.8,4.1034687 C20.6,4.03619872 20.3333333,4.03619872 20.1333333,3.96892874 L19.8,3.90165876 C19.6666667,3.90165876 19.6,3.90165876 19.4666667,3.90165876 L19.0666667,3.90165876 L18.8666667,3.90165876 L18.8,3.90165876 L18.7333333,3.90165876 C16.9333333,3.83438878 15.0666667,4.1034687 13.3333333,4.64162853 C11.6,5.17978836 9.93333333,6.05429808 8.53333333,7.13061774 C7.13333333,8.20693739 5.93333333,9.48506699 5,10.8304666 C4.73333333,11.1668165 4.53333333,11.5031663 4.33333333,11.8395162 C4.2,12.0413262 4.13333333,12.1758661 4.06666667,12.3776761 C4,12.579486 3.86666667,12.714026 3.8,12.9158359 C3.46666667,13.5885357 3.2,14.3285055 2.93333333,15.0012052 C2.8,15.3375551 2.73333333,15.673905 2.6,16.0102549 C2.53333333,16.1447949 2.53333333,16.3466048 2.46666667,16.4811448 C2.46666667,16.6156847 2.4,16.8174947 2.4,16.9520346 C2.4,17.0193046 2.33333333,17.0865746 2.33333333,17.2211145 C2.33333333,17.2883845 2.33333333,17.3556545 2.26666667,17.4901944 C2.26666667,17.6247344 2.2,17.8265443 2.2,17.9610843 C2.13333333,18.2974342 2.13333333,18.5665141 2.06666667,18.835594 C2.06666667,19.1719439 2,19.4410238 2,19.7773737 L2,19.8446437 L2,19.9791837 C2,20.0464536 2,20.1137236 2,20.1809936 C2,20.3155335 2,20.4500735 2,20.5846135 C2,21.1227733 2,21.5936631 2.06666667,21.997283 C2.13333333,22.8717927 2.26666667,23.5444925 2.4,23.9481124 C2.46666667,24.1499223 2.46666667,24.3517323 2.53333333,24.4862722 C2.53333333,24.6208122 2.6,24.6880822 2.6,24.6880822 L0.8,25.158972 C0.8,25.158972 0.8,25.091702 0.733333333,24.9571621 C0.666666667,24.8226221 0.6,24.6208122 0.533333333,24.4190022 C0.466666667,24.1499223 0.333333333,23.8135724 0.266666667,23.4099526 C0.0666666667,22.3336329 1.77635684e-14,21.1900433 1.77635684e-14,19.9791837 C1.74675089e-14,8.94690716 8.86666667,1.31450406e-13 19.7333333,1.31450406e-13 C24.6666667,1.31450406e-13 29.1333333,1.81628942 32.6,4.77616848 C34.1333333,6.12156806 35.4666667,7.60150759 36.4666667,9.35052703 C38.3333333,12.444946 39.4666667,16.0775249 39.4666667,19.9119137 Z M11.4666667,19.3737538 C11.7333333,18.7010541 12.2666667,18.2974342 13,18.2974342 C13.0666667,18.2974342 13.0666667,18.2974342 13.1333333,18.2974342 C13.6,18.2974342 14.0666667,18.4992441 14.4,18.835594 L17.2666667,21.7954731 L17.5333333,21.5263932 C18.6666667,20.3828035 20,19.1046739 21.1333333,17.9610843 L21.3333333,17.7592744 C22.4,16.6829547 23.8666667,15.2702852 25,14.1266955 C25.3333333,13.7903456 25.8,13.5885357 26.2666667,13.5885357 C26.8666667,13.5885357 27.4,13.8576156 27.7333333,14.3957754 C28.1333333,15.0012052 28.0666667,15.9429849 27.5333333,16.4811448 C27.4666667,16.5484147 27.4666667,16.5484147 27.4,16.6156847 C26.0666667,17.9610843 24.4,19.5082938 23,20.9209634 C21.2666667,22.6699828 19.8,24.0826524 18.5333333,25.3607819 C18,25.8989418 17.4,26.0334817 16.6666667,25.8316718 C16.4666667,25.7644018 16.2,25.6298619 16,25.4280519 C14.4,23.8808424 13.4,22.8045228 11.8666667,21.2573133 C11.4,20.7191534 11.2,20.0464536 11.4666667,19.3737538 Z" id="Combined-Shape"></path>
            </g>
        </g>
    </g>
</svg>