<?xml version="1.0" encoding="UTF-8"?>
<svg width="30px" height="30px" viewBox="0 0 30 30" version="1.1" xmlns="http://www.w3.org/2000/svg" xmlns:xlink="http://www.w3.org/1999/xlink">
    <!-- Generator: Sketch 52.5 (67469) - http://www.bohemiancoding.com/sketch -->
    <title>LinkedIN</title>
    <desc>Created with Sketch.</desc>
    <g id="Page-1" stroke="none" stroke-width="1" fill="none" fill-rule="evenodd">
        <g id="breakpoint--xlarge-[desktop-wide]" transform="translate(-282.000000, -1723.000000)">
            <g id="Footer" transform="translate(0.000000, 1415.000000)">
                <g id="Group-4" transform="translate(165.000000, 74.000000)">
                    <g id="Social-Links" transform="translate(0.000000, 208.000000)">
                        <g id="Group-5" transform="translate(0.000000, 26.000000)">
                            <g id="LinkedIN" transform="translate(117.000000, 0.000000)">
                                <path d="M2,16.5 C2,9.04415551 8.04415551,3 15.5,3 C22.9558445,3 29,9.04415551 29,16.5 C29,23.9558445 22.9558445,30 15.5,30 C8.04415551,30 2,23.9558445 2,16.5 Z" id="back-copy-4" fill="#FFFFFF"></path>
                                <path d="M0,15 C0,6.71572834 6.71572834,0 15,0 C23.2842717,0 30,6.71572834 30,15 C30,23.2842717 23.2842717,30 15,30 C6.71572834,30 0,23.2842717 0,15 Z" id="back" fill="#FFFFFF"></path>
                                <path d="M10.6003387,12.9236552 L10.6003387,23.1372248 L7.20101071,23.1372248 L7.20101071,12.9236552 L10.6003387,12.9236552 Z M10.8242271,9.76418606 C10.8242271,10.7448769 10.0860337,11.5295923 8.90074261,11.5295923 L8.87901906,11.5295923 C7.73778602,11.5295923 7,10.7448769 7,9.76418606 C7,8.76275203 7.76025631,8 8.92314502,8 C10.0860337,8 10.8021641,8.76275203 10.8242271,9.76418606 Z M22.859616,17.2810761 L22.8594802,23.1372248 L19.460288,23.1372248 L19.460288,17.6729593 C19.460288,16.3004531 18.9683854,15.3638923 17.7378142,15.3638923 C16.7986781,15.3638923 16.2392967,15.9952709 15.993617,16.6050929 C15.9037358,16.8236418 15.8816728,17.1281461 15.8816728,17.4333961 L15.8816728,23.137496 L12.4819375,23.137496 C12.4819375,23.137496 12.5267423,13.8823149 12.4819375,12.9239263 L15.8816728,12.9239263 L15.8816728,14.3705928 C16.3328437,13.6751544 17.1408919,12.6838208 18.9457114,12.6838208 C21.1826259,12.6838208 22.859616,14.1439093 22.859616,17.2810761 Z" id="Shape" fill="#1C1D1E"></path>
                            </g>
                        </g>
                    </g>
                </g>
            </g>
        </g>
    </g>
</svg>