<?xml version="1.0" encoding="UTF-8"?>
<svg width="38px" height="39px" viewBox="0 0 38 39" version="1.1" xmlns="http://www.w3.org/2000/svg" xmlns:xlink="http://www.w3.org/1999/xlink">
    <!-- Generator: Sketch 52.5 (67469) - http://www.bohemiancoding.com/sketch -->
    <title>Shape</title>
    <desc>Created with Sketch.</desc>
    <g id="Page-1" stroke="none" stroke-width="1" fill="none" fill-rule="evenodd">
        <g id="Home-Page-Sample-1---Old-Style-Copy" transform="translate(-561.000000, -2706.000000)" fill="#1C1D1E" fill-rule="nonzero">
            <g id="Section-4---Features" transform="translate(0.000000, 2283.000000)">
                <g id="Row-1" transform="translate(165.000000, 405.000000)">
                    <g id="Schedule-Distribution" transform="translate(285.000000, 0.000000)">
                        <g id="Schedule-Distribution-Icon" transform="translate(88.000000, 0.000000)">
                            <path d="M32.0070268,18.509852 C31.5413193,18.509852 31.163812,18.8863097 31.163812,19.3507225 L31.163812,26.0776859 C31.163812,26.5420986 31.5413193,26.9185563 32.0070268,26.9185563 C32.4727343,26.9185563 32.8502415,26.5420986 32.8502415,26.0776859 L32.8502415,19.3507225 C32.8502415,18.8863097 32.4727343,18.509852 32.0070268,18.509852 Z M48.0281072,18.509852 C47.5623996,18.509852 47.1848924,18.8863097 47.1848924,19.3507225 L47.1848924,26.0776859 C47.1848924,26.5420986 47.5623996,26.9185563 48.0281072,26.9185563 C48.4938147,26.9185563 48.8713219,26.5420986 48.8713219,26.0776859 L48.8713219,19.3507225 C48.8713219,18.8863097 48.4938147,18.509852 48.0281072,18.509852 Z M26.9609135,21.0324633 C25.0865272,21.0324633 23.5748792,22.5400599 23.5748792,24.4090626 L23.5748792,30.282038 L56.4602547,30.282038 L56.4602547,24.4090626 C56.4602547,22.5399758 54.9486068,21.0324633 53.0742205,21.0324633 L50.5577514,21.0324633 L49.7145367,21.0324633 L49.7145367,24.198845 C50.2316761,24.6608612 50.5577514,25.3309088 50.5577514,26.0776859 C50.5577514,27.470882 49.4251917,28.6002971 48.0281072,28.6002971 C46.6310226,28.6002971 45.4984629,27.470882 45.4984629,26.0776859 C45.4984629,25.3309088 45.8245383,24.6608612 46.3416776,24.198845 L46.3416776,21.0324633 L45.4984629,21.0324633 L34.5366711,21.0324633 L33.6934563,21.0324633 L33.6934563,24.198845 C34.2105957,24.6608612 34.5366711,25.3309088 34.5366711,26.0776859 C34.5366711,27.470882 33.4041114,28.6002971 32.0070268,28.6002971 C30.6099422,28.6002971 29.4773825,27.470882 29.4773825,26.0776859 C29.4773825,25.3309088 29.8034579,24.6609453 30.3205973,24.198845 L30.3205973,21.0324633 L29.4773825,21.0324633 L26.9609135,21.0324633 Z M23.5748792,31.9637788 L23.5748792,49.6089528 C23.5748792,51.4780396 25.0865272,52.9855521 26.9609135,52.9855521 L48.5155907,52.9855521 C48.1984365,52.2055607 48.0281072,51.3564077 48.0281072,50.4629408 C48.0281072,46.747723 51.0482663,43.7359774 54.7738252,43.7359774 C55.3587506,43.7359774 55.9190626,43.8198122 56.4602547,43.9593126 L56.4602547,31.9637788 L23.5748792,31.9637788 Z M54.7738252,44.5768478 C51.5139612,44.5768478 48.8713219,47.2121357 48.8713219,50.4629408 C48.8713219,53.7137459 51.5139612,56.3490338 54.7738252,56.3490338 C58.033685,56.3490338 60.6763285,53.7137459 60.6763285,50.4629408 C60.6763285,47.2121357 58.033685,44.5768478 54.7738252,44.5768478 Z M54.7738252,46.6790239 C55.017139,46.6790239 55.2259696,46.7906074 55.3798858,46.9549135 C56.0818031,47.5787552 56.7739137,48.3576535 57.4747475,49.0308544 C57.8139517,49.3690525 57.8040819,49.8849685 57.4747475,50.2132864 C57.1454131,50.5416883 56.6183027,50.5416883 56.2889767,50.2132864 L55.61704,49.5432388 L55.61704,53.4059873 C55.61704,53.8704 55.2395749,54.2468577 54.7738252,54.2468577 C54.3080755,54.2468577 53.9306105,53.8704 53.9306105,53.4059873 L53.9306105,49.5432388 L53.2586737,50.2132864 C52.9293477,50.5416883 52.4022373,50.5416883 52.0729029,50.2132864 C51.7435686,49.8849685 51.7369915,49.3690525 52.0729029,49.0308544 C52.7588202,48.3425599 53.4781667,47.5914103 54.1677646,46.9549135 C54.321685,46.7906074 54.5305114,46.6790239 54.7738252,46.6790239 Z" id="Shape"></path>
                        </g>
                    </g>
                </g>
            </g>
        </g>
    </g>
</svg>