<?xml version="1.0" encoding="UTF-8"?>
<svg width="80px" height="81px" viewBox="0 0 80 81" version="1.1" xmlns="http://www.w3.org/2000/svg" xmlns:xlink="http://www.w3.org/1999/xlink">
    <!-- Generator: Sketch 52.5 (67469) - http://www.bohemiancoding.com/sketch -->
    <title>Engagement Icon</title>
    <desc>Created with Sketch.</desc>
    <defs>
        <linearGradient x1="100%" y1="100%" x2="21.6238839%" y2="15.3000646%" id="linearGradient-1">
            <stop stop-color="#58FFE6" offset="0%"></stop>
            <stop stop-color="#88C7F8" offset="100%"></stop>
        </linearGradient>
        <rect id="path-2" x="0" y="0" width="80" height="80" rx="40"></rect>
    </defs>
    <g id="Page-1" stroke="none" stroke-width="1" fill="none" fill-rule="evenodd">
        <g id="Engagement-Icon">
            <ellipse id="Oval" fill="#FFFFFF" cx="40" cy="40.0338409" rx="40" ry="40.0338409"></ellipse>
            <g id="Rectangle-49-Copy">
                <mask id="mask-3" fill="white">
                    <use xlink:href="#path-2"></use>
                </mask>
                <use id="Mask" fill="url(#linearGradient-1)" xlink:href="#path-2"></use>
                <g id="Group-6" mask="url(#mask-3)">
                    <g transform="translate(-2.285714, -5.714286)">
                        <rect id="Rectangle-49" fill="#FFFFFF" opacity="0.150000006" transform="translate(46.285714, 48.571429) rotate(47.000000) translate(-46.285714, -48.571429) " x="26.2857143" y="6.85714286" width="40" height="83.4285714" rx="9.14285714"></rect>
                        <rect id="Rectangle-50" fill-opacity="0.0427423007" fill="#000000" transform="translate(46.285714, 48.571429) rotate(-43.000000) translate(-46.285714, -48.571429) " x="26.2857143" y="2.28571429" width="40" height="92.5714286" rx="9.14285714"></rect>
                    </g>
                </g>
            </g>
            <path d="M56.3102233,26.1203642 L23.3033033,26.1203642 C21.7365191,26.1203642 20.4830918,27.3728608 20.4830918,28.9384814 L20.4830918,47.7781166 C20.4830918,49.3437372 21.7365191,50.5962337 23.3033033,50.5962337 L42.8358794,50.5962337 L50.5131218,58.2677749 C50.9831571,58.7374611 51.714323,58.3721496 51.714323,57.7459013 L51.714323,50.5962337 L56.3102233,50.5962337 C57.8770074,50.5962337 59.1304348,49.3437372 59.1304348,47.7781166 L59.1304348,28.9384814 C59.1304348,27.3728608 57.8770074,26.1203642 56.3102233,26.1203642 Z M30.8760935,40.8893857 C29.6226661,40.8893857 28.6303695,39.897826 28.6303695,38.6453294 C28.6303695,37.3928329 29.6226661,36.4012732 30.8760935,36.4012732 C32.1295208,36.4012732 33.1218175,37.3928329 33.1218175,38.6453294 C33.1740436,39.897826 32.1295208,40.8893857 30.8760935,40.8893857 Z M39.8067633,40.8893857 C38.5533359,40.8893857 37.5610393,39.897826 37.5610393,38.6453294 C37.5610393,37.3928329 38.5533359,36.4012732 39.8067633,36.4012732 C41.0601906,36.4012732 42.0524873,37.3928329 42.0524873,38.6453294 C42.0524873,39.897826 41.0601906,40.8893857 39.8067633,40.8893857 Z M48.7374331,40.8893857 C47.4840057,40.8893857 46.4917091,39.897826 46.4917091,38.6453294 C46.4917091,37.3928329 47.4840057,36.4012732 48.7374331,36.4012732 C49.9908604,36.4012732 50.9831571,37.3928329 50.9831571,38.6453294 C50.9831571,39.897826 49.9908604,40.8893857 48.7374331,40.8893857 Z" id="Shape" fill="#FFFFFF"></path>
        </g>
    </g>
</svg>