<?xml version="1.0" encoding="UTF-8"?>
<svg width="80px" height="80px" viewBox="0 0 80 80" version="1.1" xmlns="http://www.w3.org/2000/svg" xmlns:xlink="http://www.w3.org/1999/xlink">
    <!-- Generator: Sketch 52.5 (67469) - http://www.bohemiancoding.com/sketch -->
    <title>Schedule Flexibility Icon Copy</title>
    <desc>Created with Sketch.</desc>
    <defs>
        <linearGradient x1="100%" y1="100%" x2="21.6238839%" y2="15.3000646%" id="linearGradient-1">
            <stop stop-color="#54DF5B" offset="0%"></stop>
            <stop stop-color="#B9F890" offset="100%"></stop>
        </linearGradient>
        <rect id="path-2" x="0" y="0" width="80" height="80" rx="40"></rect>
    </defs>
    <g id="Page-1" stroke="none" stroke-width="1" fill="none" fill-rule="evenodd">
        <g id="Schedule-Flexibility-Icon-Copy">
            <g id="Icon">
                <g id="Rectangle-49">
                    <mask id="mask-3" fill="white">
                        <use xlink:href="#path-2"></use>
                    </mask>
                    <use id="Mask" fill="url(#linearGradient-1)" xlink:href="#path-2"></use>
                    <rect fill="#FFFFFF" opacity="0.150000006" mask="url(#mask-3)" transform="translate(45.179830, 43.235849) rotate(47.000000) translate(-45.179830, -43.235849) " x="25.1798296" y="1.52156299" width="40" height="83.4285714" rx="9.14285714"></rect>
                    <rect id="Rectangle-50" fill-opacity="0.0427423007" fill="#000000" mask="url(#mask-3)" transform="translate(44.256546, 43.072584) rotate(-43.000000) translate(-44.256546, -43.072584) " x="24.2565462" y="-3.2131299" width="40" height="92.5714286" rx="9.14285714"></rect>
                </g>
            </g>
            <path d="M39.5185185,27.8372838 L41.1288245,27.8372838 L41.1288245,30.2547863 L39.5185185,30.2547863 L39.5185185,27.8372838 Z M50.3880837,39.5218791 L52.8035427,39.5218791 L52.8035427,41.1335474 L50.3880837,41.1335474 L50.3880837,39.5218791 Z M39.5185185,50.4006402 L41.1288245,50.4006402 L41.1288245,52.8181427 L39.5185185,52.8181427 L39.5185185,50.4006402 Z M27.8438003,39.5218791 L30.2592593,39.5218791 L30.2592593,41.1335474 L27.8438003,41.1335474 L27.8438003,39.5218791 Z M48.1417069,33.6473481 L47.763285,34.0260902 L41.4669887,40.3277133 L42.5056361,41.3672393 C42.6580617,41.5185481 42.743799,41.7245159 42.743799,41.9393816 C42.743799,42.1542472 42.6580617,42.3602151 42.5056361,42.5115238 C42.3544552,42.6640784 42.1486615,42.7498882 41.9339775,42.7498882 C41.7192934,42.7498882 41.5134997,42.6640784 41.3623188,42.5115238 L40.3236715,41.4719978 L39.2850242,42.5115238 C39.1338433,42.6640784 38.9280495,42.7498882 38.7133655,42.7498882 C38.4986815,42.7498882 38.2928878,42.6640784 38.1417069,42.5115238 C37.9892813,42.3602151 37.903544,42.1542472 37.903544,41.9393816 C37.903544,41.7245159 37.9892813,41.5185481 38.1417069,41.3672393 L39.1803543,40.3277133 L34.921095,36.0648506 C34.7168611,35.8604438 34.6370986,35.5625145 34.7118534,35.2832897 C34.7866082,35.0040649 35.0045233,34.7859655 35.283512,34.7111475 C35.5625008,34.6363294 35.8601783,34.7161593 36.0644122,34.9205661 L40.3236715,39.1834288 L46.1932367,33.3088978 L46.9983897,32.5030636 C47.314108,32.1870782 47.8259886,32.1870782 48.1417069,32.5030636 C48.4574252,32.819049 48.4574252,33.3313627 48.1417069,33.6473481 Z M40.3236715,25.0168643 C31.874871,25.0168643 25.0257649,31.8717649 25.0257649,40.3277133 L21,40.3277133 C21.0045784,33.1525162 24.9778285,26.569573 31.3214857,23.2269141 C37.6651428,19.8842552 45.3364584,20.3313353 51.2495974,24.3883136 C52.1703348,25.0188132 53.0326289,25.7308077 53.826087,26.5157158 L55.9919485,25.0168643 L56.4267311,29.5859439 L56.8293076,34.6868742 L53.9227053,33.3330728 L47.9726248,30.5690616 L50.4444444,28.8606932 C49.5887325,28.094142 48.6455348,27.4314516 47.6344605,26.8863995 C45.3940262,25.6562094 42.8791249,25.0130919 40.3236715,25.0168643 Z M55.6215781,40.3277133 L59.6473853,40.3277133 C59.6519733,42.5247206 59.2760374,44.705903 58.5362319,46.7743865 C56.5313163,52.4368552 52.0110995,56.8453249 46.3034396,58.7047645 C40.5957798,60.564204 34.3488493,59.6634519 29.3977456,56.2671129 C28.4770082,55.6366134 27.614714,54.9246189 26.821256,54.1397107 L24.6553945,55.6385623 L24.2608696,51.0694826 L23.8904992,46.7743865 L23.8180354,45.9685524 L25.5491143,46.7743865 L26.7246377,47.3223538 L32.6747182,50.0863649 L30.2028986,51.7947333 C31.0586105,52.5612846 32.0018082,53.2239749 33.0128824,53.769027 C35.2533168,54.9992171 37.7682181,55.6423346 40.3236715,55.6385623 C46.8878085,55.6370727 52.7193562,51.4445336 54.8164251,45.2191266 C55.3513365,43.6439618 55.6233619,41.9913706 55.6215781,40.3277133 Z" id="Combined-Shape" fill="#FFFFFF"></path>
        </g>
    </g>
</svg>