<?xml version="1.0" encoding="UTF-8"?>
<svg width="30px" height="30px" viewBox="0 0 30 30" version="1.1" xmlns="http://www.w3.org/2000/svg" xmlns:xlink="http://www.w3.org/1999/xlink">
    <!-- Generator: Sketch 52.5 (67469) - http://www.bohemiancoding.com/sketch -->
    <title>Twitter</title>
    <desc>Created with Sketch.</desc>
    <g id="Page-1" stroke="none" stroke-width="1" fill="none" fill-rule="evenodd">
        <g id="breakpoint--xlarge-[desktop-wide]" transform="translate(-243.000000, -1723.000000)">
            <g id="Footer" transform="translate(0.000000, 1415.000000)">
                <g id="Group-4" transform="translate(165.000000, 74.000000)">
                    <g id="Social-Links" transform="translate(0.000000, 208.000000)">
                        <g id="Group-5" transform="translate(0.000000, 26.000000)">
                            <g id="Twitter" transform="translate(78.000000, 0.000000)">
                                <path d="M2,16.5 C2,9.04415551 8.04415551,3 15.5,3 C22.9558445,3 29,9.04415551 29,16.5 C29,23.9558445 22.9558445,30 15.5,30 C8.04415551,30 2,23.9558445 2,16.5 Z" id="back-copy-3" fill="#FFFFFF"></path>
                                <path d="M0,15 C0,6.71572834 6.71572834,0 15,0 C23.2842717,0 30,6.71572834 30,15 C30,23.2842717 23.2842717,30 15,30 C6.71572834,30 0,23.2842717 0,15 Z" id="back" fill="#FFFFFF"></path>
                                <path d="M15.2833559,12.1921879 L15.3158709,12.7112217 L14.7739545,12.6476666 C12.801379,12.4040384 11.0780849,11.5778213 9.61491076,10.1902002 L8.89958116,9.50168594 L8.7153296,10.0101273 C8.32514982,11.1435277 8.57443135,12.3404833 9.38730589,13.1455154 C9.82083898,13.5904015 9.72329404,13.6539567 8.97544945,13.3891435 C8.7153296,13.3044033 8.48772473,13.2408481 8.46604807,13.2726257 C8.39017978,13.3467734 8.65029964,14.3106934 8.85622785,14.6920243 C9.13802436,15.2216507 9.71245571,15.7406846 10.3410787,16.0478679 L10.8721567,16.291496 L10.2435337,16.3020885 C9.63658742,16.3020885 9.61491076,16.312681 9.67994073,16.5351241 C9.89670727,17.2236384 10.7529351,17.9545228 11.7067079,18.2722986 L12.3786842,18.4947417 L11.7934145,18.8337025 C10.9263484,19.3209588 9.9075456,19.5963645 8.88874284,19.6175496 C8.40101811,19.6281421 8,19.6705122 8,19.7022898 C8,19.8082151 9.32227593,20.4013966 10.0917972,20.6344322 C12.4003609,21.3229465 15.1424577,21.0263557 17.2017399,19.8505852 C18.664914,19.0137755 20.1280882,17.3507487 20.8109028,15.7406846 C21.179406,14.8826898 21.5479091,13.3149958 21.5479091,12.5629263 C21.5479091,12.0756701 21.5804241,12.0121149 22.1873704,11.4295259 C22.5450352,11.090565 22.8810233,10.7198266 22.9460533,10.6139013 C23.0544366,10.4126433 23.0435983,10.4126433 22.4908436,10.5927163 C21.5695857,10.9104921 21.4395258,10.868122 21.8947356,10.3914582 C22.2307237,10.0524974 22.6317418,9.43813078 22.6317418,9.25805781 C22.6317418,9.22628023 22.4691669,9.27924287 22.2849153,9.37457561 C22.0898255,9.48050089 21.6562924,9.6393888 21.3311425,9.73472154 L20.7458729,9.91479451 L20.2147948,9.56524111 C19.92216,9.37457561 19.5103036,9.16272507 19.293537,9.0991699 C18.7407823,8.95087452 17.8953928,8.97205957 17.3968297,9.14154001 C16.0420388,9.61820374 15.185811,10.8469369 15.2833559,12.1921879 Z" id="Shape" fill="#1C1D1E"></path>
                            </g>
                        </g>
                    </g>
                </g>
            </g>
        </g>
    </g>
</svg>