<?xml version="1.0" encoding="UTF-8"?>
<svg width="40px" height="32px" viewBox="0 0 40 32" version="1.1" xmlns="http://www.w3.org/2000/svg" xmlns:xlink="http://www.w3.org/1999/xlink">
    <!-- Generator: Sketch 52.5 (67469) - http://www.bohemiancoding.com/sketch -->
    <title>Group 11</title>
    <desc>Created with Sketch.</desc>
    <g id="Page-1" stroke="none" stroke-width="1" fill="none" fill-rule="evenodd">
        <g id="Home-Page-Sample-1---Old-Style-Copy" transform="translate(-1128.000000, -3079.000000)" fill="#000000">
            <g id="Section-4---Features" transform="translate(0.000000, 2283.000000)">
                <g id="Row-2" transform="translate(165.000000, 773.000000)">
                    <g id="Mobile-&amp;-Web" transform="translate(855.000000, 0.000000)">
                        <g id="Mobile-&amp;-Web-Icon" transform="translate(88.000000, 0.000000)">
                            <g id="Group-11" transform="translate(20.000000, 23.000000)">
                                <path d="M36.6910313,6.3109856 C36.6910313,5.4190448 35.9621928,4.69395087 35.0657425,4.69395087 L26.0348666,4.69395087 L26.0348666,23.0767965 C26.0348666,23.7684374 25.4694392,24.3312843 24.7746272,24.3312843 L14.8388994,24.3312843 C14.1440874,24.3312843 13.5786599,23.7684374 13.5786599,23.0767965 L13.5786599,4.69353271 L4.02352447,4.69353271 C3.12749422,4.69353271 2.39907582,5.41862664 2.39907582,6.31056744 L2.39907582,27.3445639 L36.6914514,27.3445639 L36.6914514,6.3109856 L36.6910313,6.3109856 Z" id="Path"></path>
                                <path d="M14.8388994,0.933414699 C14.3755514,0.933414699 13.9987398,1.30850654 13.9987398,1.76973988 L13.9987398,4.48445141 L13.9987398,23.0763783 C13.9987398,23.5376117 14.3755514,23.9127035 14.8388994,23.9127035 L24.7746272,23.9127035 C25.2379752,23.9127035 25.6147868,23.5376117 25.6147868,23.0763783 L25.6147868,4.48445141 L25.6147868,1.76973988 C25.6147868,1.30850654 25.2379752,0.933414699 24.7746272,0.933414699 L14.8388994,0.933414699 Z M19.8067633,23.8064902 C19.3345936,23.8064902 18.9502205,23.4238714 18.9502205,22.9538567 C18.9502205,22.4838419 19.3345936,22.1012232 19.8067633,22.1012232 C20.278933,22.1012232 20.663306,22.4838419 20.663306,22.9538567 C20.663306,23.4238714 20.278933,23.8064902 19.8067633,23.8064902 Z M24.6091157,21.9749381 L15.0044108,21.9749381 L15.0044108,4.48445141 L15.0044108,1.65056354 L24.6086957,1.65056354 L24.6086957,4.48445141 L24.6086957,21.9749381 L24.6091157,21.9749381 Z" id="Shape" fill-rule="nonzero"></path>
                                <polygon id="Path" points="15.4244907 4.48445141 15.4244907 21.5567755 24.1890359 21.5567755 24.1890359 4.48445141 24.1890359 2.06872613 15.4244907 2.06872613"></polygon>
                                <ellipse id="Oval" cx="19.8067633" cy="22.9538567" rx="1" ry="1"></ellipse>
                                <path d="M1.97899601,27.7627265 L0.52299937,27.7627265 L0.52299937,29.7703251 C0.52299937,30.8772014 1.66351607,31.7779237 3.06532241,31.7779237 L36.5486242,31.7779237 C37.9508507,31.7779237 39.0913674,30.8776196 39.0913674,29.7703251 L39.0913674,27.7627265 L37.1115312,27.7627265 L1.97899601,27.7627265 Z M23.0182735,29.7703251 L23.0182735,29.9794064 L16.5960933,29.9794064 L16.5960933,29.7703251 L16.5960933,29.5612438 L23.0178534,29.5612438 L23.0178534,29.7703251 L23.0182735,29.7703251 Z" id="Shape" fill-rule="nonzero"></path>
                            </g>
                        </g>
                    </g>
                </g>
            </g>
        </g>
    </g>
</svg>