<?xml version="1.0" encoding="UTF-8"?>
<svg width="77px" height="71px" viewBox="0 0 77 71" version="1.1" xmlns="http://www.w3.org/2000/svg" xmlns:xlink="http://www.w3.org/1999/xlink">
    <!-- Generator: Sketch 52.5 (67469) - http://www.bohemiancoding.com/sketch -->
    <title>Group</title>
    <desc>Created with Sketch.</desc>
    <defs>
        <path d="M1.75929233,0.313629512 C0.792767325,0.313629512 0.009292325,1.08894085 0.009292325,2.04533683 C0.009292325,3.0017328 0.792767325,3.77704415 1.75929233,3.77704415 L10.8374175,3.77704415 L20.0522175,46.8532463 C20.27578,47.9174671 20.994155,48.8126732 21.8842925,48.8014171 L65.6342881,48.8014171 C66.5588131,48.8144049 67.4092256,47.9847439 67.4092256,47.0697098 C67.4092256,46.1547622 66.5588131,45.3251012 65.6342881,45.3380024 L23.3061675,45.3380024 L21.829605,38.4111732 L69.1342881,38.4111732 C69.9178506,38.4025146 70.6581881,37.8148598 70.8296006,37.0582768 L76.9546006,11.082693 C77.1821881,10.0776794 76.3001006,8.97953451 75.2592881,8.97217476 L15.5405425,8.97217476 L13.9819925,1.66652585 C13.8085675,0.901128537 13.051955,0.306936463 12.2592925,0.313629512 L1.75929233,0.313629512 Z M16.2788675,12.4355894 L31.78273,12.4355894 L33.3959675,21.9599796 L18.329605,21.9599796 L16.2788675,12.4355894 Z M35.3101175,12.4355894 L53.9584675,12.4355894 L52.34523,21.9599796 L36.923355,21.9599796 L35.3101175,12.4355894 Z M57.485855,12.4355894 L73.0717881,12.4355894 L70.8296006,21.9599796 L55.8726175,21.9599796 L57.485855,12.4355894 Z M19.0678425,25.4233943 L33.97023,25.4233943 L35.5834675,34.9477585 L21.0913675,34.9477585 L19.0678425,25.4233943 Z M37.5249175,25.4233943 L51.7436675,25.4233943 L50.15773,34.9477585 L39.110855,34.9477585 L37.5249175,25.4233943 Z M55.298355,25.4233943 L70.0092881,25.4233943 L67.7397131,34.9477585 L53.6851175,34.9477585 L55.298355,25.4233943 Z" id="path-1"></path>
    </defs>
    <g id="Page-1" stroke="none" stroke-width="1" fill="none" fill-rule="evenodd">
        <g id="Home-Page-Sample-1---Old-Style-Copy" transform="translate(-1038.000000, -1930.000000)">
            <g id="Section-3---Solutions" transform="translate(0.000000, 1459.000000)">
                <g id="Group-6" transform="translate(166.000000, 153.000000)">
                    <g id="Grocery-Block" transform="translate(854.000000, 262.000000)">
                        <g id="Group" transform="translate(18.000000, 56.552259)">
                            <mask id="mask-2" fill="white">
                                <use xlink:href="#path-1"></use>
                            </mask>
                            <use id="Mask" fill="#000000" fill-rule="nonzero" xlink:href="#path-1"></use>
                            <rect id="Rectangle" fill-rule="nonzero" mask="url(#mask-2)" x="11.55" y="8.96784875" width="70.84" height="29.4306452"></rect>
                            <polygon id="Rectangle-Copy" fill="#000000" fill-rule="nonzero" mask="url(#mask-2)" points="2.31 7.85322509 73.0675201 7.85322509 66.9378045 35.7188165 2.31 35.7188165"></polygon>
                            <path d="M30.6342925,53.996539 C34.96283,53.996539 38.5092925,57.5060171 38.5092925,61.789222 C38.5092925,66.0725134 34.96283,69.5819049 30.6342925,69.5819049 C26.3058425,69.5819049 22.7592925,66.0725134 22.7592925,61.789222 C22.7592925,57.5059305 26.3058425,53.996539 30.6342925,53.996539 Z M30.6342925,57.4599537 C28.1974175,57.4599537 26.2592925,59.3778195 26.2592925,61.789222 C26.2592925,64.200711 28.1974175,66.1184902 30.6342925,66.1184902 C33.071255,66.1184902 35.0092925,64.2007976 35.0092925,61.789222 C35.0092925,59.3777329 33.071255,57.4599537 30.6342925,57.4599537 Z" id="Combined-Shape" fill="#FC5858" fill-rule="nonzero"></path>
                            <path d="M56.8842925,53.996539 C61.21283,53.996539 64.7592881,57.5060171 64.7592881,61.789222 C64.7592881,66.0725134 61.21283,69.5819049 56.8842925,69.5819049 C52.5558425,69.5819049 49.0092925,66.0725134 49.0092925,61.789222 C49.0092925,57.5059305 52.5558425,53.996539 56.8842925,53.996539 Z M56.8842925,57.4599537 C54.4474175,57.4599537 52.5092925,59.3778195 52.5092925,61.789222 C52.5092925,64.200711 54.4474175,66.1184902 56.8842925,66.1184902 C59.321255,66.1184902 61.2592925,64.2007976 61.2592925,61.789222 C61.2592925,59.3777329 59.321255,57.4599537 56.8842925,57.4599537 Z" id="Combined-Shape" fill="#FC5858" fill-rule="nonzero"></path>
                        </g>
                    </g>
                </g>
            </g>
        </g>
    </g>
</svg>