<?xml version="1.0" encoding="UTF-8"?>
<svg width="80px" height="80px" viewBox="0 0 80 80" version="1.1" xmlns="http://www.w3.org/2000/svg" xmlns:xlink="http://www.w3.org/1999/xlink">
    <!-- Generator: Sketch 52.5 (67469) - http://www.bohemiancoding.com/sketch -->
    <title>Schedule Distribution Icon</title>
    <desc>Created with Sketch.</desc>
    <defs>
        <linearGradient x1="100%" y1="100%" x2="21.6238839%" y2="15.3000646%" id="linearGradient-1">
            <stop stop-color="#C058FF" offset="0%"></stop>
            <stop stop-color="#E795FF" offset="100%"></stop>
        </linearGradient>
        <path d="M40,-7.10542736e-15 L40,-7.10542736e-15 C62.09139,-1.11635499e-14 80,17.90861 80,40 L80,40 C80,62.09139 62.09139,80 40,80 L40,80 C17.90861,80 -8.47298674e-16,62.09139 -3.55271368e-15,40 L-3.55271368e-15,40 C-6.25812868e-15,17.90861 17.90861,-3.04730485e-15 40,-7.10542736e-15 Z" id="path-2"></path>
    </defs>
    <g id="Page-1" stroke="none" stroke-width="1" fill="none" fill-rule="evenodd">
        <g id="Schedule-Distribution-Icon">
            <g id="Icon-Copy">
                <g id="Rectangle-49">
                    <mask id="mask-3" fill="white">
                        <use xlink:href="#path-2"></use>
                    </mask>
                    <use id="Mask" fill="url(#linearGradient-1)" transform="translate(40.000000, 40.000000) rotate(90.000000) translate(-40.000000, -40.000000) " xlink:href="#path-2"></use>
                    <path d="M34.2596325,1.52156299 L56.1000266,1.52156299 C61.1146633,1.52156299 65.1798296,5.58672925 65.1798296,10.6013659 L65.1798296,75.8703315 C65.1798296,80.8849682 61.1146633,84.9501344 56.1000266,84.9501344 L34.2596325,84.9501344 C29.2449958,84.9501344 25.1798296,80.8849682 25.1798296,75.8703315 L25.1798296,10.6013659 C25.1798296,5.58672925 29.2449958,1.52156299 34.2596325,1.52156299 Z" fill="#FFFFFF" opacity="0.150000006" mask="url(#mask-3)" transform="translate(45.179830, 43.235849) rotate(47.000000) translate(-45.179830, -43.235849) "></path>
                    <path d="M33.3363492,-3.2131299 L55.1767433,-3.2131299 C60.19138,-3.2131299 64.2565462,0.852036354 64.2565462,5.86667306 L64.2565462,80.2784957 C64.2565462,85.2931324 60.19138,89.3582987 55.1767433,89.3582987 L33.3363492,89.3582987 C28.3217125,89.3582987 24.2565462,85.2931324 24.2565462,80.2784957 L24.2565462,5.86667306 C24.2565462,0.852036354 28.3217125,-3.2131299 33.3363492,-3.2131299 Z" id="Rectangle-50" fill-opacity="0.0427423007" fill="#000000" mask="url(#mask-3)" transform="translate(44.256546, 43.072584) rotate(-43.000000) translate(-44.256546, -43.072584) "></path>
                </g>
            </g>
            <path d="M32.0321476,21 C31.5664401,21 31.1889328,21.3764577 31.1889328,21.8408704 L31.1889328,28.5678338 C31.1889328,29.0322466 31.5664401,29.4087043 32.0321476,29.4087043 C32.4978551,29.4087043 32.8753623,29.0322466 32.8753623,28.5678338 L32.8753623,21.8408704 C32.8753623,21.3764577 32.4978551,21 32.0321476,21 Z M48.0532279,21 C47.5875204,21 47.2100132,21.3764577 47.2100132,21.8408704 L47.2100132,28.5678338 C47.2100132,29.0322466 47.5875204,29.4087043 48.0532279,29.4087043 C48.5189354,29.4087043 48.8964427,29.0322466 48.8964427,28.5678338 L48.8964427,21.8408704 C48.8964427,21.3764577 48.5189354,21 48.0532279,21 Z M26.9860343,23.5226113 C25.111648,23.5226113 23.6,25.0302079 23.6,26.8992106 L23.6,32.772186 L56.4853755,32.772186 L56.4853755,26.8992106 C56.4853755,25.0301238 54.9737275,23.5226113 53.0993412,23.5226113 L50.5828722,23.5226113 L49.7396574,23.5226113 L49.7396574,26.6889929 C50.2567968,27.1510092 50.5828722,27.8210568 50.5828722,28.5678338 C50.5828722,29.96103 49.4503125,31.0904451 48.0532279,31.0904451 C46.6561433,31.0904451 45.5235837,29.96103 45.5235837,28.5678338 C45.5235837,27.8210568 45.849659,27.1510092 46.3667984,26.6889929 L46.3667984,23.5226113 L45.5235837,23.5226113 L34.5617918,23.5226113 L33.7185771,23.5226113 L33.7185771,26.6889929 C34.2357165,27.1510092 34.5617918,27.8210568 34.5617918,28.5678338 C34.5617918,29.96103 33.4292321,31.0904451 32.0321476,31.0904451 C30.635063,31.0904451 29.5025033,29.96103 29.5025033,28.5678338 C29.5025033,27.8210568 29.8285787,27.1510933 30.3457181,26.6889929 L30.3457181,23.5226113 L29.5025033,23.5226113 L26.9860343,23.5226113 Z M23.6,34.4539268 L23.6,52.0991008 C23.6,53.9681876 25.111648,55.4757 26.9860343,55.4757 L48.5407115,55.4757 C48.2235573,54.6957086 48.0532279,53.8465556 48.0532279,52.9530888 C48.0532279,49.237871 51.0733871,46.2261254 54.798946,46.2261254 C55.3838714,46.2261254 55.9441834,46.3099602 56.4853755,46.4494606 L56.4853755,34.4539268 L23.6,34.4539268 Z M54.798946,47.0669958 C51.5390819,47.0669958 48.8964427,49.7022837 48.8964427,52.9530888 C48.8964427,56.2038938 51.5390819,58.8391818 54.798946,58.8391818 C58.0588058,58.8391818 60.7014493,56.2038938 60.7014493,52.9530888 C60.7014493,49.7022837 58.0588058,47.0669958 54.798946,47.0669958 Z M54.798946,49.1691719 C55.0422598,49.1691719 55.2510904,49.2807554 55.4050066,49.4450614 C56.1069238,50.0689032 56.7990345,50.8478015 57.4998682,51.5210024 C57.8390725,51.8592004 57.8292026,52.3751165 57.4998682,52.7034343 C57.1705339,53.0318363 56.6434235,53.0318363 56.3140975,52.7034343 L55.6421607,52.0333867 L55.6421607,55.8961353 C55.6421607,56.360548 55.2646957,56.7370057 54.798946,56.7370057 C54.3331963,56.7370057 53.9557312,56.360548 53.9557312,55.8961353 L53.9557312,52.0333867 L53.2837945,52.7034343 C52.9544685,53.0318363 52.4273581,53.0318363 52.0980237,52.7034343 C51.7686893,52.3751165 51.7621123,51.8592004 52.0980237,51.5210024 C52.783941,50.8327079 53.5032875,50.0815583 54.1928854,49.4450614 C54.3468058,49.2807554 54.5556321,49.1691719 54.798946,49.1691719 Z" id="Shape" fill="#FFFFFF"></path>
        </g>
    </g>
</svg>