<?xml version="1.0" encoding="UTF-8"?>
<svg width="85px" height="69px" viewBox="0 0 85 69" version="1.1" xmlns="http://www.w3.org/2000/svg" xmlns:xlink="http://www.w3.org/1999/xlink">
    <!-- Generator: Sketch 52.5 (67469) - http://www.bohemiancoding.com/sketch -->
    <title>Group 3</title>
    <desc>Created with Sketch.</desc>
    <defs>
        <path d="M81.4583333,32.7339286 C78.4479167,32.7339286 66.7604167,32.7339286 67.1145833,32.7339286 C66.40625,32.7339286 65.875,32.9105357 65.34375,33.26375 L65.34375,7.12589286 C65.34375,6.41946429 64.8125,5.88964286 64.1041667,5.88964286 C63.3958333,5.88964286 62.8645833,6.41946429 62.8645833,7.12589286 L62.8645833,45.2730357 L58.4375,45.2730357 C58.2604167,44.7432143 58.2604167,44.39 57.90625,43.8601786 L53.65625,36.2660714 C53.3020833,35.73625 52.9479167,35.3830357 52.4166667,35.2064286 L45.8645833,4.83 L45.8645833,4.65339286 C44.9791667,2.00428571 42.6770833,0.414821429 39.84375,0.414821429 L6.375,0.414821429 C2.83333333,0.414821429 0.177083333,3.24053571 0.177083333,6.77267857 L0.177083333,38.9151786 C0,38.9151786 0,39.0917857 0,39.2683929 L0,55.6928571 C0,57.8121429 1.59375,59.4016071 3.54166667,59.5782143 C3.89583333,61.8741071 4.95833333,63.9933929 6.55208333,65.7594643 C8.5,67.7021429 11.3333333,68.9383929 14.1666667,68.9383929 C17,68.9383929 19.65625,67.87875 21.78125,65.7594643 C23.375,64.17 24.4375,62.0507143 24.7916667,59.7548214 L38.25,59.7548214 C38.9583333,64.8764286 43.5625,68.9383929 48.875,68.9383929 C54.71875,68.9383929 59.6770833,64.17 59.6770833,58.1653571 C59.6770833,56.3992857 59.3229167,54.8098214 58.6145833,53.3969643 L62.8645833,53.3969643 C63.0416667,53.9267857 63.5729167,54.28 64.1041667,54.28 L81.6354167,54.28 C81.8125,54.28 81.9895833,54.28 82.1666667,54.1033929 C83.7604167,53.7501786 85,52.3373214 85,50.57125 L85,36.2660714 C85,34.3233929 83.40625,32.7339286 81.4583333,32.7339286 Z M75.6145833,35.2064286 L75.6145833,37.1491071 L72.9583333,37.1491071 L72.9583333,35.2064286 L75.6145833,35.2064286 Z M66.0520833,36.2660714 C66.0520833,35.73625 66.5833333,35.2064286 67.1145833,35.2064286 L70.4791667,35.2064286 L70.4791667,38.3853571 C70.4791667,39.0917857 71.0104167,39.6216071 71.71875,39.6216071 L76.8541667,39.6216071 C77.5625,39.6216071 78.09375,39.0917857 78.09375,38.3853571 L78.09375,35.2064286 L81.4583333,35.2064286 C81.9895833,35.2064286 82.5208333,35.73625 82.5208333,36.2660714 L82.5208333,50.57125 C82.5208333,51.1010714 81.9895833,51.6308929 81.4583333,51.6308929 L67.1145833,51.6308929 C66.5833333,51.6308929 66.0520833,51.1010714 66.0520833,50.57125 L66.0520833,36.2660714 Z M6.375,2.71071429 L39.84375,2.71071429 C41.4375,2.71071429 42.8541667,3.77035714 43.3854167,5.18321429 L49.7604167,35.2064286 L47.8125,35.2064286 C46.9270833,35.2064286 46.21875,35.5596429 45.6875,36.4426786 L42.8541667,41.0344643 L38.6041667,36.7958929 L41.2604167,34.1467857 C41.7916667,33.6169643 41.7916667,32.9105357 41.2604167,32.3807143 C40.7291667,31.8508929 40.0208333,31.8508929 39.4895833,32.3807143 L32.40625,39.445 C31.875,39.9748214 31.875,40.68125 32.40625,41.2110714 C32.9375,41.7408929 33.6458333,41.7408929 34.1770833,41.2110714 L36.65625,38.7385714 L41.4375,43.5069643 L39.1354167,47.3923214 L26.5625,47.3923214 L22.6666667,39.0917857 L22.6666667,35.3830357 C22.6666667,33.9701786 21.4270833,32.7339286 20.0104167,32.7339286 L11.3333333,32.7339286 L11.3333333,25.1398214 C11.3333333,23.0205357 9.5625,21.2544643 7.4375,21.2544643 L4.78125,21.2544643 C4.07291667,21.2544643 3.54166667,21.7842857 3.54166667,22.4907143 L3.54166667,38.20875 L2.65625,38.20875 L2.65625,6.59607143 C2.65625,4.47678571 4.25,2.71071429 6.375,2.71071429 Z M6.02083333,37.8555357 L6.02083333,23.37375 L7.26041667,23.37375 C7.96875,23.37375 8.67708333,24.0801786 8.67708333,24.7866071 L8.67708333,33.6169643 C8.67708333,34.3233929 9.20833333,34.8532143 9.91666667,34.8532143 L20.0104167,34.8532143 L20.0104167,37.6789286 L6.02083333,37.6789286 L6.02083333,37.8555357 Z M2.65625,55.6928571 L2.65625,40.5046429 L4.42708333,40.5046429 C4.60416667,40.5046429 4.78125,40.5046429 4.78125,40.5046429 L20.5416667,40.5046429 L24.4375,48.9817857 C24.6145833,49.335 24.96875,49.5116071 25.3229167,49.6882143 C25.5,49.8648214 25.6770833,49.8648214 26.03125,49.8648214 L40.0208333,49.6882143 C40.1979167,49.6882143 40.375,49.6882143 40.5520833,49.5116071 C40.5520833,49.5116071 40.5520833,49.5116071 40.7291667,49.335 C40.90625,49.335 40.90625,49.1583929 41.0833333,48.9817857 C41.0833333,48.9817857 41.0833333,48.9817857 41.0833333,48.9817857 L44.2708333,43.6835714 C44.4479167,43.5069643 44.4479167,43.5069643 44.4479167,43.3303571 L47.8125,37.6789286 L51.3541667,37.6789286 L55.6041667,45.0964286 C55.78125,45.4496429 55.78125,45.62625 55.78125,45.9794643 L55.78125,46.5092857 L55.78125,49.8648214 C53.8333333,48.2753571 51.3541667,47.2157143 48.6979167,47.2157143 C43.2083333,47.2157143 38.6041667,51.4542857 38.0729167,56.7525 L24.7916667,56.7525 C24.6145833,54.28 23.5520833,51.9841071 21.78125,50.2180357 C19.8333333,48.2753571 17,47.0391071 14.1666667,47.0391071 C11.3333333,47.0391071 8.67708333,48.09875 6.55208333,50.2180357 C4.78125,51.9841071 3.71875,54.28 3.54166667,56.5758929 C3.01041667,56.9291071 2.65625,56.3992857 2.65625,55.6928571 Z M20.0104167,63.8167857 C18.4166667,65.40625 16.46875,66.1126786 14.1666667,66.1126786 C12.0416667,66.1126786 9.91666667,65.2296429 8.32291667,63.8167857 C6.72916667,62.2273214 6.02083333,60.2846429 6.02083333,57.98875 C6.02083333,55.8694643 6.90625,53.7501786 8.32291667,52.1607143 C9.91666667,50.57125 11.8645833,49.8648214 14.1666667,49.8648214 C16.2916667,49.8648214 18.4166667,50.7478571 20.0104167,52.1607143 C21.6041667,53.7501786 22.3125,55.6928571 22.3125,57.98875 C22.3125,57.98875 22.3125,58.1653571 22.3125,58.1653571 C22.3125,58.1653571 22.3125,58.1653571 22.3125,58.1653571 C22.3125,60.46125 21.4270833,62.4039286 20.0104167,63.8167857 Z M48.875,66.2892857 C44.4479167,66.2892857 40.90625,62.7571429 40.7291667,58.3419643 C40.7291667,58.1653571 40.7291667,58.3419643 40.7291667,58.1653571 C40.7291667,53.7501786 44.4479167,50.0414286 48.875,50.0414286 C51.8854167,50.0414286 54.5416667,51.6308929 55.9583333,54.28 C56.6666667,55.51625 57.0208333,56.7525 57.0208333,58.1653571 C57.0208333,62.5805357 53.3020833,66.2892857 48.875,66.2892857 Z M58.4375,47.9221429 L62.6875,47.9221429 L62.6875,50.57125 L58.4375,50.57125 L58.4375,47.9221429 Z" id="path-1"></path>
    </defs>
    <g id="Page-1" stroke="none" stroke-width="1" fill="none" fill-rule="evenodd">
        <g id="Home-Page-Sample-1---Old-Style-Copy" transform="translate(-480.000000, -1932.000000)">
            <g id="Section-3---Solutions" transform="translate(0.000000, 1459.000000)">
                <g id="Group-6" transform="translate(166.000000, 153.000000)">
                    <g id="Distribution-Centers-Block" transform="translate(284.000000, 262.000000)">
                        <g id="Group-3" transform="translate(30.000000, 58.000000)">
                            <mask id="mask-2" fill="white">
                                <use xlink:href="#path-1"></use>
                            </mask>
                            <use id="Mask" fill="#000000" fill-rule="nonzero" xlink:href="#path-1"></use>
                            <rect id="Rectangle" fill="#FFDE3E" fill-rule="nonzero" mask="url(#mask-2)" x="70.1456311" y="35.2064286" width="9.0776699" height="4.92857143"></rect>
                            <path d="M58.4375,45.2137559 C58.344032,44.7041709 58.2466079,44.3589086 58.1452275,44.1779691 C55.1314369,38.7990796 53.5355446,35.9525731 53.3765131,35.7737912 C53.2093126,35.5858257 52.9214229,35.3802763 52.5128441,35.1571429 C50.5045082,35.1571429 48.92689,35.1571429 47.7799893,35.1571429 C47.3059171,35.1657869 46.7767629,34.6214471 45.4768483,36.7660459 C45.0040816,37.4248864 42.8846604,40.95834 39.1185847,47.3664064 L26.6007346,47.3664064 L22.665193,39.0649156 L22.665193,38.2687938 L1.98543192e-12,38.2687938 C-4.60069357e-14,44.5435786 -4.60069357e-14,50.4274612 1.98543192e-12,55.9204413 C-3.71453052e-13,58.3108566 2.41167299,59.5730239 3.53269306,59.5730239 C3.38520525,54.2767249 4.00150278,50.7722708 5.38158565,49.0596617 C8.16353285,45.6074138 13.0145369,45.8186757 14.2946465,45.8186757 C21.8417591,45.8186757 25.2573503,51.2639523 24.7994237,59.7807499 C24.8947163,59.7807499 25.0306013,59.7804782 25.1276792,59.7807499 C28.6110639,59.7904994 33.2336878,59.9699428 38.2763785,59.9442491 C38.3341245,59.9439548 37.1897241,55.324907 39.6716122,51.3682434 C41.4787604,48.4872604 42.8335327,47.2978866 46.4318658,47.1212812 C52.0581651,46.8451437 56.1295045,48.9317574 58.6458843,53.3811224 L58.4375,45.2137559 Z" id="Path-19-Copy" fill="#FFDE3E" fill-rule="nonzero" mask="url(#mask-2)"></path>
                            <g id="Group-4" transform="translate(7.427184, 51.750000)" fill="#000000" fill-rule="nonzero">
                                <path d="M41.4478155,0.0575 C38.0832322,0.0575 35.2498989,2.88321429 35.2498989,6.23875 C35.2498989,9.59428571 38.0832322,12.42 41.4478155,12.42 C44.8123989,12.42 47.6457322,9.59428571 47.6457322,6.23875 C47.6457322,2.88321429 44.9894822,0.0575 41.4478155,0.0575 Z M41.4478155,9.9475 C39.4998989,9.9475 37.7290655,8.35803571 37.7290655,6.23875 C37.7290655,4.11946429 39.3228155,2.53 41.4478155,2.53 C43.3957322,2.53 45.1665655,4.11946429 45.1665655,6.23875 C45.1665655,8.35803571 43.3957322,9.9475 41.4478155,9.9475 Z" id="Shape"></path>
                                <path d="M2.4894822,2.00017857 C0.010315534,4.47267857 0.010315534,8.35803571 2.4894822,10.8305357 C3.72906553,12.0667857 5.1457322,12.5966071 6.91656553,12.5966071 C8.51031553,12.5966071 10.1040655,11.8901786 11.3436489,10.8305357 C13.8228155,8.35803571 13.8228155,4.47267857 11.3436489,2.00017857 C8.8644822,-0.472321429 4.79156553,-0.472321429 2.4894822,2.00017857 Z M9.3957322,8.88785714 C7.97906553,10.3007143 5.6769822,10.3007143 4.26031553,8.88785714 C2.84364887,7.475 2.84364887,5.17910714 4.26031553,3.76625 C4.96864887,3.05982143 5.85406553,2.70660714 6.7394822,2.70660714 C7.8019822,2.70660714 8.68739887,3.05982143 9.3957322,3.76625 C10.8123989,5.17910714 10.8123989,7.475 9.3957322,8.88785714 Z" id="Shape"></path>
                            </g>
                        </g>
                    </g>
                </g>
            </g>
        </g>
    </g>
</svg>