<?xml version="1.0" encoding="UTF-8"?>
<svg width="36px" height="40px" viewBox="0 0 36 40" version="1.1" xmlns="http://www.w3.org/2000/svg" xmlns:xlink="http://www.w3.org/1999/xlink">
    <!-- Generator: Sketch 52.5 (67469) - http://www.bohemiancoding.com/sketch -->
    <title>Icon</title>
    <desc>Created with Sketch.</desc>
    <g id="Page-1" stroke="none" stroke-width="1" fill="none" fill-rule="evenodd">
        <g id="Home-Page-Sample-1---Old-Style-Copy" transform="translate(-275.000000, -2708.000000)" fill-rule="nonzero">
            <g id="Section-4---Features" transform="translate(0.000000, 2283.000000)">
                <g id="Row-1" transform="translate(165.000000, 405.000000)">
                    <g id="Shifts-Optimization">
                        <g id="Shifts-Optimization-Icon" transform="translate(88.000000, 0.000000)">
                            <g id="Icon" transform="translate(22.000000, 20.000000)">
                                <path d="M23.9894793,11.6855536 C24.3154938,11.6849301 24.6283019,11.8141986 24.8586151,12.0447254 L25.8146645,12.9998856 C26.2401735,13.4219364 26.2986131,14.0891958 25.9529361,14.5786627 L25.0205904,15.9048355 C25.3802558,16.5241313 25.657808,17.1875144 25.8462695,17.8783069 L27.4265164,18.1585398 C28.0282115,18.2467353 28.4739861,18.7626807 28.47343,19.3702513 L28.47343,20.7240526 C28.4729011,21.3193458 28.0449183,21.8284545 27.4581213,21.9318171 L25.8778744,22.2120501 C25.6893706,22.902828 25.4118206,23.5662058 25.0521954,24.1855215 L25.9845411,25.5116943 C26.330218,26.0011611 26.2717784,26.6684206 25.8462695,27.0904714 L24.8902201,28.0456316 C24.4677763,28.4707448 23.7998957,28.52913 23.3099732,28.1837746 L21.9825658,27.2522961 C21.3627532,27.6117473 20.6987364,27.8890482 20.0072571,28.0772071 L19.7267633,29.6559842 C19.6352887,30.2682615 19.1017795,30.7166692 18.4823188,30.7019241 L17.1312077,30.7019241 C16.5353603,30.7013957 16.0257777,30.273811 15.9223188,29.6875598 L15.641825,28.1087826 C14.9503749,27.9205389 14.2863688,27.6432425 13.6665164,27.2838716 L12.339109,28.2153501 C11.8491864,28.5607055 11.1813058,28.5023203 10.7588621,28.0772071 L9.80281267,27.1220469 C9.37730369,26.6999961 9.31886413,26.0327367 9.66454106,25.5432698 L10.5968867,24.217097 C10.2372615,23.5977813 9.95971149,22.9344036 9.77120773,22.2436256 L8.19096082,21.9633927 C7.57561705,21.87546 7.12380808,21.3409207 7.14009662,20.7201057 L7.14009662,19.3702513 C7.13901119,18.7743711 7.56775071,18.2643622 8.15540526,18.1624868 L9.73565217,17.8822538 C9.92415593,17.1914759 10.201706,16.5280981 10.5613312,15.9087824 L9.62898551,14.5826096 C9.28330858,14.0931428 9.34174813,13.4258833 9.76725711,13.0038325 L10.7233065,12.0486723 C11.1457502,11.6235591 11.8136309,11.5651739 12.3035534,11.9105293 L13.6309608,12.8420078 C14.2508531,12.4827171 14.9148484,12.2054252 15.6062695,12.0170968 L15.8867633,10.4383197 C15.9764395,9.82446925 16.5104453,9.37395038 17.1312077,9.38843289 L18.4862695,9.38843289 C19.0821169,9.38896127 19.5916995,9.81654601 19.6951583,10.4027972 L19.9756522,11.9815743 C20.6671023,12.1698181 21.3311084,12.4471145 21.9509608,12.8064854 L23.2783682,11.8750069 C23.4903575,11.7405107 23.7386066,11.6743725 23.9894793,11.6855536 Z" id="Shape" fill="#1C1D1E"></path>
                                <path d="M20.5050349,19.1255408 C20.4253401,18.9740736 20.2790306,18.8688287 20.1099732,18.8413609 L20.0467633,18.8413609 L17.9726892,18.7466343 L18.4586151,15.802215 C18.5273439,15.5929507 18.4132594,15.3676446 18.2038003,15.2989798 C17.9943412,15.2303149 17.7688254,15.3442933 17.7000966,15.5535576 L15.1005904,20.5109177 C15.0237925,20.6636477 15.0237925,20.8436617 15.1005904,20.9963917 C15.1807609,21.1474452 15.3268365,21.2525218 15.4956522,21.2805716 L15.5588621,21.2805716 L17.6329361,21.3752982 L17.1470102,24.3197175 C17.1025505,24.4543828 17.1333779,24.6025154 17.2278801,24.7083155 C17.3223823,24.8141155 17.4662022,24.8615094 17.6051641,24.8326442 C17.744126,24.803779 17.8571184,24.7030401 17.9015781,24.5683749 L20.5129361,19.6110148 C20.5878952,19.45718 20.5849604,19.2768595 20.5050349,19.1255408 Z" id="Path" fill="#FFFFFF"></path>
                                <path d="M18.2413312,32.8569549 L18.2413312,34.092348 C24.6280265,33.892543 30.0772478,29.416431 31.508164,23.1946754 C32.9390802,16.9729198 29.9920272,10.5693733 24.333183,7.60441474 C24.241697,7.55781906 24.1819116,7.46613705 24.1762155,7.36370219 C24.1705194,7.26126733 24.2197719,7.16353329 24.3055287,7.10709994 L26.8694793,5.44149008 C27.0218687,5.34190082 27.2188183,5.34190082 27.3712077,5.44149008 C33.7692272,9.62594653 36.7014901,17.4799994 34.609183,24.8283739 C32.5168758,32.1767485 25.8858992,37.3129172 18.2413312,37.5064535 L18.2413312,38.7615813 C18.2437583,38.9592227 18.1356746,39.1417229 17.9611096,39.2347377 C17.7865446,39.3277524 17.5746335,39.3157573 17.4117016,39.2036389 L12.8882448,36.2513257 C12.7392322,36.153539 12.6494943,35.9873851 12.6494943,35.8092681 C12.6494943,35.631151 12.7392322,35.4649971 12.8882448,35.3672105 L17.4117016,32.4148973 C17.5742556,32.3093928 17.7815282,32.3010875 17.9520173,32.393247 C18.1225064,32.4854065 18.2289447,32.6632913 18.2294793,32.8569549 L18.2413312,32.8569549 Z" id="Path" fill="#000000"></path>
                                <path d="M22.7252818,3.83903129 L18.201825,0.88671807 C18.038893,0.774599621 17.826982,0.762604581 17.652417,0.855619312 C17.477852,0.948634042 17.3697683,1.13113424 17.3721954,1.32877567 L17.3721954,2.58390348 C9.72762737,2.77743973 3.09665077,7.91360848 1.00434362,15.261983 C-1.08796354,22.6103576 1.84429935,30.4644104 8.24231884,34.6488669 C8.39470824,34.7484561 8.59165783,34.7484561 8.74404724,34.6488669 L11.3079979,32.9793101 C11.3937547,32.9228767 11.4430072,32.8251427 11.4373111,32.7227078 C11.431615,32.620273 11.3718295,32.528591 11.2803435,32.4819953 C5.62568293,29.5151203 2.68207699,23.1139822 4.11256572,16.8950122 C5.54305445,10.6760422 10.9884136,6.20094769 17.3721954,5.99800901 L17.3721954,7.23340211 C17.3697683,7.43104354 17.477852,7.61354374 17.652417,7.70655847 C17.826982,7.7995732 18.038893,7.78757816 18.201825,7.67545971 L22.7410843,4.72314648 C22.8900968,4.62535984 22.9798347,4.45920592 22.9798347,4.28108889 C22.9798347,4.10297185 22.8900968,3.93681794 22.7410843,3.83903129 L22.7252818,3.83903129 Z" id="Path" fill="#000000"></path>
                            </g>
                        </g>
                    </g>
                </g>
            </g>
        </g>
    </g>
</svg>