<?xml version="1.0" encoding="UTF-8"?>
<svg width="80px" height="80px" viewBox="0 0 80 80" version="1.1" xmlns="http://www.w3.org/2000/svg" xmlns:xlink="http://www.w3.org/1999/xlink">
    <!-- Generator: Sketch 52.5 (67469) - http://www.bohemiancoding.com/sketch -->
    <title>Task Management Icon</title>
    <desc>Created with Sketch.</desc>
    <defs>
        <linearGradient x1="84.607565%" y1="87.7949869%" x2="27.1859296%" y2="26.5936239%" id="linearGradient-1">
            <stop stop-color="#00F7A7" offset="0%"></stop>
            <stop stop-color="#04F5ED" offset="100%"></stop>
        </linearGradient>
        <rect id="path-2" x="0" y="0" width="80" height="80" rx="40"></rect>
    </defs>
    <g id="Page-1" stroke="none" stroke-width="1" fill="none" fill-rule="evenodd">
        <g id="Task-Management-Icon">
            <g id="Icon-Copy">
                <mask id="mask-3" fill="white">
                    <use xlink:href="#path-2"></use>
                </mask>
                <use id="Mask" fill="url(#linearGradient-1)" fill-rule="nonzero" xlink:href="#path-2"></use>
                <g id="Icon/Settings" mask="url(#mask-3)">
                    <g transform="translate(-2.285714, -4.571429)">
                        <rect id="Rectangle-49" fill="#FFFFFF" opacity="0.267020089" transform="translate(47.465544, 47.807277) rotate(47.000000) translate(-47.465544, -47.807277) " x="27.4655438" y="6.09299157" width="40" height="83.4285714" rx="9.14285714"></rect>
                        <rect id="Rectangle-50" fill-opacity="0.0285043025" fill="#000000" transform="translate(46.542261, 47.644013) rotate(-43.000000) translate(-46.542261, -47.644013) " x="26.5422605" y="1.35829867" width="40" height="92.5714286" rx="9.14285714"></rect>
                    </g>
                </g>
            </g>
            <path d="M50.4082126,21 C50.7101449,21 51.0120773,21.2417502 51.0120773,21.6043756 L51.0120773,58.8339137 C51.0120773,59.1965391 50.7705314,59.4382893 50.4082126,59.4382893 L21.6038647,59.4382893 C21.2415459,59.4382893 21,59.1361015 21,58.8339137 L21,21.6043756 C21,21.2417502 21.2415459,21 21.6038647,21 L50.4082126,21 Z M32.7149758,55.8724732 L32.7149758,50.4935302 C32.7149758,50.1309048 32.4130435,49.8891545 32.1111111,49.8891545 L26.4951691,49.8891545 C26.1328502,49.8891545 25.8913043,50.1913424 25.8913043,50.4935302 L25.8913043,55.8724732 C25.8913043,56.2350985 26.1932367,56.4768488 26.4951691,56.4768488 L32.1111111,56.4768488 C32.47343,56.4768488 32.7149758,56.174661 32.7149758,55.8724732 Z M32.7149758,47.2299018 L32.7149758,41.8509588 C32.7149758,41.4883335 32.4130435,41.2465832 32.1111111,41.2465832 L26.4951691,41.2465832 C26.1328502,41.2465832 25.8913043,41.548771 25.8913043,41.8509588 L25.8913043,47.2299018 C25.8913043,47.5925272 26.1932367,47.8342774 26.4951691,47.8342774 L32.1111111,47.8342774 C32.47343,47.8342774 32.7149758,47.5320896 32.7149758,47.2299018 Z M32.7149758,38.6477681 L32.7149758,33.268825 C32.7149758,32.9061997 32.4130435,32.6644494 32.1111111,32.6644494 L26.4951691,32.6644494 C26.1328502,32.6644494 25.8913043,32.9666372 25.8913043,33.268825 L25.8913043,38.6477681 C25.8913043,39.0103934 26.1932367,39.2521437 26.4951691,39.2521437 L32.1111111,39.2521437 C32.47343,39.2521437 32.7149758,38.9499559 32.7149758,38.6477681 Z M32.7149758,30.0051967 L32.7149758,24.6262537 C32.7149758,24.2636283 32.4130435,24.0218781 32.1111111,24.0218781 L26.4951691,24.0218781 C26.1328502,24.0218781 25.8913043,24.3240659 25.8913043,24.6262537 L25.8913043,30.0051967 C25.8913043,30.3678221 26.1932367,30.6095723 26.4951691,30.6095723 L32.1111111,30.6095723 C32.47343,30.6095723 32.7149758,30.3073845 32.7149758,30.0051967 Z M46.1207729,53.8175961 C46.4227053,53.8175961 46.6642512,53.5758458 46.6642512,53.2132204 C46.6642512,52.8505951 46.3623188,52.6088448 46.0603865,52.6088448 L35.0700483,52.6088448 C34.7077295,52.6088448 34.4661836,52.8505951 34.4661836,53.2132204 C34.4661836,53.5758458 34.7681159,53.8175961 35.0700483,53.8175961 L46.1207729,53.8175961 Z M46.1207729,45.1750247 C46.4227053,45.1750247 46.6642512,44.9332745 46.6642512,44.5706491 C46.6642512,44.2080237 46.3623188,43.9662735 46.0603865,43.9662735 L35.0700483,43.9662735 C34.7077295,43.9662735 34.4661836,44.2080237 34.4661836,44.5706491 C34.4661836,44.9332745 34.7681159,45.1750247 35.0700483,45.1750247 L46.1207729,45.1750247 Z M46.1207729,36.5324534 C46.4227053,36.5324534 46.7246377,36.2907031 46.6642512,35.9280778 C46.6642512,35.5654524 46.3623188,35.3237022 46.0603865,35.3237022 L35.0700483,35.3237022 C34.7077295,35.3237022 34.4661836,35.62589 34.4661836,35.9280778 C34.4661836,36.2907031 34.7681159,36.5324534 35.0700483,36.5324534 L46.1207729,36.5324534 Z M46.1207729,27.889882 C46.4227053,27.889882 46.6642512,27.6481318 46.6642512,27.2855064 C46.6642512,26.9228811 46.3623188,26.6811308 46.0603865,26.6811308 L35.0700483,26.6811308 C34.7077295,26.6811308 34.4661836,26.9228811 34.4661836,27.2855064 C34.4661836,27.6481318 34.7681159,27.889882 35.0700483,27.889882 L46.1207729,27.889882 Z M27.0990338,29.4008211 L27.0990338,25.2306293 L31.5072464,25.2306293 L31.5072464,29.4008211 L27.0990338,29.4008211 Z M27.4613527,26.8020059 C27.2801932,27.0437562 27.2801932,27.4063816 27.4613527,27.6481318 L28.4275362,28.6151328 C28.5483092,28.7360079 28.6690821,28.7964455 28.8502415,28.7964455 C29.031401,28.7964455 29.1521739,28.7360079 29.2729469,28.6151328 L31.0241546,26.8624435 C31.2657005,26.6206932 31.2657005,26.2580679 31.0241546,26.0163176 C30.7826087,25.7745674 30.4202899,25.7745674 30.178744,26.0163176 L28.8502415,27.345944 L28.3067633,26.8020059 C28.0652174,26.5602557 27.7028986,26.5602557 27.4613527,26.8020059 Z M53.9710145,35.7467651 L59.647343,35.7467651 L59.647343,51.9440317 L53.9710145,51.9440317 L53.9710145,35.7467651 Z M53.9710145,32.1809489 L59.647343,32.1809489 L59.647343,34.5380138 L53.9710145,34.5380138 L53.9710145,32.1809489 Z M53.9710145,54.3010966 L53.9710145,53.1527829 L59.647343,53.1527829 L59.647343,54.3010966 C59.647343,54.4219717 59.647343,54.5428468 59.5869565,54.6032844 L57.4130435,58.652601 C57.2922705,58.8339137 57.1111111,58.9547888 56.8695652,58.9547888 C56.6280193,58.9547888 56.4468599,58.8339137 56.326087,58.652601 L54.031401,54.6032844 C53.9710145,54.4824092 53.9710145,54.4219717 53.9710145,54.3010966 Z M56.8091787,26.0767552 C58.3792271,26.0767552 59.647343,27.2855064 59.647343,28.7360079 L59.647343,30.9721977 L53.9710145,30.9721977 L53.9710145,28.7360079 C53.9710145,27.2855064 55.2391304,26.0767552 56.8091787,26.0767552 Z M30.2391304,51.8835941 C30.4806763,51.6418438 30.8429952,51.6418438 31.0845411,51.8835941 C31.326087,52.1253443 31.326087,52.4879697 31.0845411,52.72972 L29.3333333,54.4824092 C29.2125604,54.6032844 29.0917874,54.6637219 28.910628,54.6637219 C28.7294686,54.6637219 28.6086957,54.6032844 28.4879227,54.4824092 L27.5217391,53.5154083 C27.2801932,53.273658 27.2801932,52.9110326 27.5217391,52.6692824 C27.763285,52.4275321 28.1256039,52.4275321 28.3671498,52.6692824 L28.910628,53.2132204 L30.2391304,51.8835941 Z M30.2391304,43.2410227 C30.4806763,42.9992725 30.8429952,42.9992725 31.0845411,43.2410227 C31.326087,43.482773 31.326087,43.8453984 31.0845411,44.0871486 L29.3333333,45.8398379 C29.2125604,45.960713 29.0917874,46.0211506 28.910628,46.0211506 C28.7294686,46.0211506 28.6086957,45.960713 28.4879227,45.8398379 L27.5217391,44.8728369 C27.2801932,44.6310867 27.2801932,44.2684613 27.5217391,44.0267111 C27.763285,43.7849608 28.1256039,43.7849608 28.3671498,44.0267111 L28.910628,44.5706491 L30.2391304,43.2410227 Z M30.2391304,34.5984514 C30.4806763,34.3567012 30.8429952,34.4171387 31.0845411,34.658889 C31.326087,34.9006392 31.326087,35.2632646 31.0845411,35.5050148 L29.3333333,37.2577041 C29.2125604,37.3785793 29.0917874,37.4390168 28.910628,37.4390168 C28.7294686,37.4390168 28.6086957,37.3785793 28.4879227,37.2577041 L27.5217391,36.2907031 C27.2801932,36.0489529 27.2801932,35.6863275 27.5217391,35.4445773 C27.763285,35.202827 28.1256039,35.202827 28.3671498,35.4445773 L28.910628,35.9885153 L30.2391304,34.5984514 Z" id="Combined-Shape" fill="#FFFFFF"></path>
        </g>
    </g>
</svg>