<?xml version="1.0" encoding="UTF-8"?>
<svg width="77px" height="75px" viewBox="0 0 77 75" version="1.1" xmlns="http://www.w3.org/2000/svg" xmlns:xlink="http://www.w3.org/1999/xlink">
    <!-- Generator: Sketch 52.5 (67469) - http://www.bohemiancoding.com/sketch -->
    <title>store-icon</title>
    <desc>Created with Sketch.</desc>
    <g id="Page-1" stroke="none" stroke-width="1" fill="none" fill-rule="evenodd" stroke-linecap="round" stroke-linejoin="round">
        <g id="Home-Page-Sample-1---Old-Style-Copy" transform="translate(-194.000000, -1928.000000)" stroke-width="2.45276163">
            <g id="Section-3---Solutions" transform="translate(0.000000, 1459.000000)">
                <g id="Group-6" transform="translate(166.000000, 153.000000)">
                    <g id="Retail-Block" transform="translate(0.000000, 262.000000)">
                        <g id="store-icon" transform="translate(29.000000, 56.000000)">
                            <path d="M64.083972,12.3096933 L10.1232162,12.3096933" id="Path" stroke="#0CC0EA"></path>
                            <rect id="Rectangle" stroke="#0CC0EA" x="18.7078819" y="42.8066813" width="12.2638081" height="12.1987952"></rect>
                            <polyline id="Path" stroke="#1C1D1E" points="7.67045455 40.3669222 7.67045455 70.8639102 42.0091173 70.8639102 42.0091173 48.9060789 56.7256871 48.9060789 56.7256871 70.8639102 66.5367336 70.8639102 66.5367336 40.3669222"></polyline>
                            <path d="M64.083972,12.3096933 L64.083972,0.110898138 L10.1232162,0.110898138 L10.1232162,12.3096933 L0.312169662,24.5084885 C0.312169662,29.2245427 4.15564713,33.0476451 8.89683536,33.0476451 C11.6365701,33.0476451 14.0697096,31.7667716 15.6419298,29.7795879 C17.21415,31.7667716 19.6472896,33.0476451 22.3870243,33.0476451 C25.5155218,33.0476451 28.2454455,31.3776301 29.7453092,28.8902957 C31.2451729,31.3776301 33.9750966,33.0476451 37.1035941,33.0476451 C40.2320915,33.0476451 42.9620152,31.3776301 44.461879,28.8902957 C45.9617427,31.3776301 48.6916664,33.0476451 51.8201638,33.0476451 C54.5598986,33.0476451 56.9930381,31.7667716 58.5652583,29.7795879 C60.1374785,31.7667716 62.5706181,33.0476451 65.3103528,33.0476451 C70.051541,33.0476451 73.8950185,29.2245427 73.8950185,24.5084885 L64.083972,12.3096933 Z" id="Path" stroke="#1C1D1E"></path>
                        </g>
                    </g>
                </g>
            </g>
        </g>
    </g>
</svg>